<svg id="svg" version="1.1" xmlns="http://www.w3.org/2000/svg" xmlns:xlink="http://www.w3.org/1999/xlink" width="400" height="400" viewBox="0, 0, 400,400"><g id="svgg"><path id="path0" d="M0.000 200.000 L 0.000 400.000 200.000 400.000 L 400.000 400.000 400.000 200.000 L 400.000 0.000 200.000 0.000 L 0.000 0.000 0.000 200.000 M191.800 99.622 C 195.904 100.693,199.190 103.431,200.669 107.011 C 201.552 109.147,201.689 109.184,208.381 109.128 C 213.193 109.087,213.391 109.051,214.181 108.081 C 217.243 104.323,220.331 103.176,223.651 104.564 C 231.529 107.856,229.634 119.200,221.206 119.200 C 218.114 119.200,214.400 117.101,214.400 115.353 C 214.400 114.523,213.048 114.360,207.200 114.485 L 201.800 114.600 201.800 118.200 L 201.800 121.800 219.444 121.904 L 237.088 122.008 237.806 120.104 C 241.437 110.472,252.229 107.198,260.945 113.086 L 262.890 114.400 278.165 114.400 C 294.895 114.400,294.400 114.326,294.400 116.831 C 294.400 119.226,294.546 119.202,280.236 119.222 C 265.443 119.244,266.014 119.174,266.371 120.922 L 266.631 122.200 273.275 122.400 C 280.515 122.618,281.600 122.967,281.600 125.081 C 281.600 127.500,280.125 128.000,272.987 128.000 L 266.491 128.000 266.302 129.100 C 266.198 129.705,265.978 130.515,265.814 130.900 C 265.535 131.552,266.006 131.600,272.631 131.600 C 280.469 131.600,281.600 131.945,281.600 134.338 C 281.600 136.665,281.069 136.800,271.938 136.800 C 261.740 136.800,262.201 135.787,267.959 145.533 C 269.301 147.806,270.400 149.737,270.400 149.825 C 270.400 149.913,271.030 150.969,271.800 152.173 C 272.570 153.377,273.200 154.464,273.200 154.589 C 273.200 154.714,273.664 155.550,274.230 156.448 C 275.132 157.876,276.260 159.840,277.764 162.600 C 278.826 164.549,279.304 164.853,280.886 164.586 C 290.596 162.945,300.047 174.910,296.526 184.387 C 295.416 187.375,291.517 192.400,290.309 192.400 C 290.130 192.400,289.268 192.852,288.392 193.405 L 286.800 194.410 286.805 229.705 L 286.811 265.000 289.234 266.164 C 302.296 272.437,302.190 291.863,289.060 298.128 C 274.976 304.848,259.449 291.830,263.994 277.113 C 264.838 274.382,267.595 269.730,268.599 269.345 C 269.565 268.974,269.321 268.241,267.198 265.132 C 264.466 261.131,264.773 261.590,261.080 256.000 C 257.996 251.333,257.697 251.007,256.588 251.098 C 253.153 251.381,248.052 251.256,247.332 250.871 C 246.722 250.544,246.353 250.556,245.899 250.915 C 245.226 251.450,241.534 257.186,240.439 259.400 C 240.221 259.840,239.231 261.460,238.239 263.000 L 236.435 265.800 237.317 266.491 C 237.803 266.871,238.350 267.186,238.534 267.191 C 241.381 267.267,246.109 275.795,246.332 281.258 C 246.672 289.587,239.857 299.200,233.613 299.200 C 233.192 299.200,232.736 299.380,232.600 299.600 C 232.264 300.144,226.200 300.108,224.428 299.552 C 216.503 297.064,211.997 291.838,210.620 283.537 C 209.115 274.461,218.308 264.400,228.107 264.400 C 230.711 264.400,231.268 264.285,231.486 263.700 C 231.629 263.315,232.051 262.550,232.423 262.000 C 234.349 259.157,241.200 247.897,241.200 247.575 C 241.200 247.370,240.587 246.346,239.838 245.301 C 239.089 244.255,238.168 242.453,237.791 241.296 L 237.105 239.192 219.453 239.296 L 201.800 239.400 201.684 242.700 L 201.568 246.000 206.893 246.000 L 212.218 246.000 212.932 244.675 C 215.642 239.642,223.564 240.060,226.213 245.376 C 230.259 253.496,219.656 260.243,213.500 253.467 C 212.895 252.801,212.400 252.013,212.400 251.716 C 212.400 251.285,211.336 251.199,207.100 251.288 L 201.800 251.400 201.600 271.600 C 201.405 291.293,201.378 291.840,200.542 293.400 C 199.282 295.752,197.125 297.866,194.721 299.106 L 192.600 300.200 151.120 300.200 C 118.469 300.200,109.534 300.094,109.140 299.700 C 108.865 299.425,108.329 299.200,107.948 299.200 C 106.587 299.200,102.558 294.776,101.644 292.278 L 100.795 289.956 100.897 199.278 L 101.000 108.600 101.990 106.600 C 103.722 103.103,106.647 100.688,110.400 99.657 C 112.397 99.108,189.704 99.075,191.800 99.622 M219.127 110.600 C 218.131 112.786,220.687 114.950,222.416 113.385 C 224.019 111.935,222.999 109.600,220.763 109.600 C 219.892 109.600,219.463 109.862,219.127 110.600 M144.243 112.233 C 143.264 114.785,144.283 115.200,151.525 115.200 C 156.649 115.200,157.580 115.104,158.051 114.525 C 158.541 113.922,158.515 113.890,157.800 114.220 C 157.360 114.424,154.531 114.647,151.513 114.716 C 145.535 114.853,144.265 114.556,144.476 113.073 C 144.671 111.702,156.875 111.503,158.044 112.851 C 158.460 113.330,158.800 113.543,158.800 113.323 C 158.800 111.561,144.900 110.520,144.243 112.233 M250.934 124.627 C 250.618 125.452,251.325 126.124,252.258 125.884 C 252.869 125.727,252.841 125.685,252.100 125.646 C 251.605 125.621,251.200 125.343,251.200 125.028 C 251.200 124.713,251.605 124.378,252.100 124.282 L 253.000 124.109 252.087 124.054 C 251.586 124.025,251.067 124.282,250.934 124.627 M201.699 180.300 L 201.800 233.400 219.595 233.400 C 237.080 233.400,237.391 233.386,237.515 232.600 C 237.633 231.851,237.943 231.033,238.905 228.930 C 241.108 224.115,248.971 220.584,254.786 221.797 C 257.291 222.320,258.400 222.249,258.400 221.564 C 258.400 221.372,259.120 220.038,260.000 218.600 C 260.880 217.162,261.600 215.903,261.600 215.801 C 261.600 215.699,262.230 214.631,263.000 213.427 C 263.770 212.223,264.400 211.136,264.400 211.011 C 264.400 210.886,264.864 210.050,265.430 209.152 C 265.997 208.255,266.926 206.683,267.496 205.660 C 269.702 201.698,269.988 201.203,270.979 199.634 C 271.540 198.744,272.000 197.914,272.000 197.789 C 272.000 197.664,272.630 196.577,273.400 195.373 C 274.814 193.163,275.085 192.400,274.456 192.400 C 273.835 192.400,270.469 189.206,269.588 187.781 C 265.665 181.432,266.748 173.307,272.147 168.584 L 274.124 166.855 272.507 164.127 C 271.618 162.627,270.520 160.737,270.067 159.926 C 269.614 159.115,268.783 157.724,268.221 156.834 C 267.660 155.944,267.200 155.137,267.200 155.041 C 267.200 154.944,266.120 153.036,264.800 150.800 C 263.480 148.564,262.400 146.651,262.400 146.548 C 262.400 146.446,261.812 145.425,261.094 144.281 C 260.376 143.136,259.435 141.525,259.003 140.700 C 258.110 138.993,258.274 139.029,254.770 139.771 C 247.231 141.370,238.742 135.892,237.362 128.539 L 237.111 127.200 219.354 127.200 L 201.597 127.200 201.699 180.300 M237.625 136.113 C 238.177 136.543,242.400 143.392,242.400 143.857 C 242.400 143.957,243.030 145.023,243.800 146.227 C 244.570 147.431,245.200 148.506,245.200 148.616 C 245.200 148.726,245.650 149.529,246.200 150.400 C 247.378 152.265,247.407 152.984,246.375 154.600 C 245.954 155.260,245.483 156.070,245.329 156.400 C 245.175 156.730,244.453 157.936,243.724 159.081 C 242.996 160.225,242.400 161.277,242.400 161.419 C 242.400 161.561,242.045 162.175,241.612 162.783 C 240.495 164.352,240.661 164.399,247.367 164.413 C 251.680 164.422,253.595 164.574,254.084 164.945 C 254.660 165.382,260.800 175.325,260.800 175.820 C 260.800 175.910,261.430 176.969,262.200 178.173 C 263.862 180.771,263.938 181.880,262.600 184.000 C 262.050 184.871,261.600 185.663,261.600 185.759 C 261.600 185.856,260.520 187.764,259.200 190.000 C 257.880 192.236,256.800 194.144,256.800 194.241 C 256.800 194.555,254.619 197.791,254.204 198.094 C 253.982 198.256,250.875 198.391,247.300 198.394 C 239.952 198.401,240.177 198.263,242.159 201.548 C 248.024 211.265,247.865 209.820,243.810 216.608 C 242.265 219.196,241.025 221.400,239.962 223.453 C 239.491 224.362,238.694 225.622,238.191 226.253 L 237.276 227.400 227.615 227.400 C 216.734 227.400,217.644 227.657,215.787 224.066 C 215.370 223.260,214.437 221.652,213.714 220.492 C 212.991 219.333,212.400 218.315,212.400 218.230 C 212.400 218.145,211.500 216.546,210.400 214.677 C 207.995 210.590,208.124 209.046,211.211 205.000 C 211.379 204.780,212.015 203.700,212.624 202.600 C 218.117 192.682,217.492 193.145,225.282 193.223 C 231.687 193.288,231.591 193.324,230.395 191.317 C 227.207 185.966,225.200 182.107,225.206 181.340 C 225.209 180.933,226.455 178.492,227.974 175.916 C 232.084 168.947,232.399 169.601,224.927 169.594 C 217.389 169.587,218.012 169.953,214.388 163.400 C 213.901 162.520,212.322 159.760,210.879 157.266 L 208.255 152.732 209.016 151.266 C 209.435 150.460,210.201 149.107,210.719 148.260 C 211.640 146.754,212.341 145.521,214.656 141.331 C 215.285 140.193,216.381 138.438,217.092 137.431 L 218.384 135.600 227.692 135.613 C 234.383 135.622,237.176 135.762,237.625 136.113 M166.600 137.984 C 166.160 138.182,165.080 138.359,164.200 138.378 C 163.320 138.397,161.880 138.685,161.000 139.020 L 159.400 139.627 160.800 139.404 C 167.987 138.259,170.955 137.965,173.400 138.154 C 179.186 138.603,181.628 138.922,181.834 139.256 C 181.951 139.445,182.622 139.579,183.324 139.554 C 184.111 139.525,184.294 139.440,183.800 139.333 C 183.360 139.237,182.640 138.997,182.200 138.800 C 180.393 137.990,168.026 137.344,166.600 137.984 M157.800 140.000 C 157.664 140.220,157.237 140.400,156.852 140.400 C 155.990 140.400,152.646 141.979,152.922 142.256 C 153.032 142.366,153.455 142.284,153.861 142.074 C 154.267 141.865,155.050 141.517,155.600 141.301 C 158.074 140.331,159.346 139.649,158.724 139.626 C 158.352 139.612,157.936 139.780,157.800 140.000 M184.954 139.926 C 185.065 140.105,186.246 140.600,187.578 141.026 C 188.910 141.452,190.000 141.915,190.000 142.057 C 190.000 142.198,190.450 142.426,191.000 142.564 C 191.787 142.762,192.000 143.069,192.000 144.008 C 192.000 145.379,190.951 145.601,189.200 144.600 C 188.650 144.286,187.930 144.028,187.600 144.028 C 187.270 144.028,187.900 144.452,189.000 144.969 C 191.155 145.982,192.142 145.831,192.508 144.431 C 192.836 143.178,191.730 142.227,188.400 140.899 C 187.850 140.679,186.897 140.297,186.281 140.050 C 184.950 139.515,184.685 139.490,184.954 139.926 M170.707 141.090 C 171.426 141.179,172.506 141.177,173.107 141.086 C 173.708 140.995,173.120 140.922,171.800 140.924 C 170.480 140.926,169.988 141.001,170.707 141.090 M163.600 141.600 C 163.270 141.813,162.460 141.997,161.800 142.008 C 161.140 142.019,160.150 142.303,159.600 142.639 L 158.600 143.250 159.600 142.990 C 160.150 142.848,161.320 142.577,162.200 142.390 C 163.080 142.203,164.430 141.877,165.200 141.666 L 166.600 141.282 165.400 141.247 C 164.740 141.228,163.930 141.387,163.600 141.600 M178.600 141.673 C 179.480 141.882,180.876 142.150,181.703 142.269 C 182.529 142.388,183.305 142.645,183.426 142.842 C 183.548 143.039,184.042 143.193,184.524 143.184 C 185.875 143.160,182.990 142.000,181.578 142.000 C 180.956 142.000,180.336 141.820,180.200 141.600 C 180.064 141.380,179.288 141.221,178.476 141.246 L 177.000 141.292 178.600 141.673 M151.452 143.142 C 150.384 144.323,152.364 146.569,153.485 145.448 C 153.622 145.312,153.365 145.200,152.916 145.200 C 151.545 145.200,150.956 144.133,151.807 143.192 C 152.201 142.757,152.434 142.400,152.324 142.400 C 152.214 142.400,151.822 142.734,151.452 143.142 M156.800 143.577 C 156.470 143.759,155.705 144.138,155.101 144.421 C 154.496 144.703,154.084 145.017,154.185 145.119 C 154.394 145.328,158.000 143.702,158.000 143.398 C 158.000 143.117,157.500 143.192,156.800 143.577 M125.424 145.813 C 124.996 146.136,124.825 146.400,125.044 146.400 C 125.262 146.400,125.611 146.231,125.820 146.025 C 126.029 145.819,127.010 145.581,128.000 145.495 L 129.800 145.340 128.000 145.283 C 126.954 145.249,125.875 145.471,125.424 145.813 M135.450 150.800 C 135.612 151.350,135.757 152.728,135.772 153.862 C 135.788 154.996,135.932 155.716,136.094 155.462 C 136.589 154.684,136.433 152.564,135.778 151.146 C 135.436 150.406,135.289 150.250,135.450 150.800 M165.256 151.259 C 164.517 151.472,164.021 151.754,164.154 151.887 C 164.287 152.021,165.072 151.908,165.898 151.638 C 167.436 151.134,176.556 151.207,179.000 151.743 C 180.089 151.982,180.070 151.953,178.800 151.433 C 177.159 150.762,167.418 150.637,165.256 151.259 M161.400 152.400 C 161.264 152.620,160.758 152.806,160.276 152.813 C 159.794 152.820,159.051 153.090,158.624 153.413 C 157.778 154.052,158.387 154.215,159.505 153.648 C 159.887 153.454,160.830 153.016,161.600 152.674 C 162.370 152.331,162.696 152.040,162.324 152.026 C 161.952 152.012,161.536 152.180,161.400 152.400 M182.200 152.650 C 183.080 152.985,184.113 153.426,184.495 153.630 C 184.877 153.833,185.417 153.996,185.695 153.991 C 185.973 153.986,185.570 153.700,184.800 153.355 C 184.030 153.010,183.087 152.564,182.705 152.364 C 182.323 152.164,181.693 152.009,181.305 152.021 C 180.917 152.032,181.320 152.315,182.200 152.650 M168.000 154.000 C 167.450 154.176,166.460 154.346,165.800 154.378 C 165.140 154.410,164.060 154.700,163.400 155.022 C 162.389 155.516,162.358 155.570,163.200 155.366 C 167.540 154.313,172.114 154.050,177.200 154.559 L 179.400 154.779 177.000 154.215 C 174.392 153.603,169.599 153.488,168.000 154.000 M156.234 154.820 C 155.409 155.652,155.843 157.600,156.853 157.600 C 157.144 157.600,157.071 157.321,156.662 156.869 C 155.797 155.913,155.825 155.675,156.900 154.777 C 157.395 154.364,157.620 154.031,157.400 154.037 C 157.180 154.043,156.655 154.395,156.234 154.820 M186.413 154.257 C 186.406 154.509,186.670 154.818,187.000 154.945 C 187.779 155.244,187.766 156.177,186.971 156.971 C 186.496 157.446,186.473 157.600,186.875 157.600 C 188.137 157.600,188.437 156.086,187.407 154.915 C 186.867 154.302,186.420 154.006,186.413 154.257 M160.400 155.977 C 160.070 156.159,159.288 156.548,158.663 156.841 C 157.998 157.153,157.740 157.447,158.043 157.548 C 158.327 157.642,158.629 157.513,158.713 157.260 C 158.798 157.007,159.101 156.800,159.388 156.800 C 159.674 156.800,160.424 156.531,161.054 156.202 C 161.684 155.874,161.930 155.614,161.600 155.626 C 161.270 155.638,160.730 155.796,160.400 155.977 M182.800 156.245 C 183.570 156.590,184.533 157.049,184.939 157.264 C 185.345 157.479,185.768 157.566,185.878 157.456 C 186.144 157.190,182.821 155.597,182.025 155.609 C 181.681 155.614,182.030 155.900,182.800 156.245 M125.905 161.483 C 126.402 161.579,127.122 161.575,127.505 161.475 C 127.887 161.375,127.480 161.296,126.600 161.301 C 125.720 161.305,125.407 161.387,125.905 161.483 M144.717 164.700 C 144.912 167.740,145.103 168.002,145.154 165.300 C 145.179 163.925,145.064 162.800,144.897 162.800 C 144.731 162.800,144.649 163.655,144.717 164.700 M167.800 164.076 C 166.700 164.300,165.440 164.631,165.000 164.812 C 164.560 164.993,163.930 165.245,163.600 165.373 C 162.943 165.626,164.301 165.398,167.400 164.736 C 169.760 164.232,177.913 164.553,178.535 165.175 C 178.769 165.409,179.338 165.600,179.800 165.600 C 180.262 165.600,180.853 165.813,181.113 166.073 C 181.374 166.334,181.703 166.430,181.845 166.288 C 181.987 166.146,181.585 165.821,180.952 165.565 C 180.318 165.310,179.440 164.954,179.000 164.775 C 176.904 163.923,170.519 163.524,167.800 164.076 M142.096 166.395 C 141.749 166.950,141.624 168.964,141.680 173.095 L 141.759 179.000 141.987 173.000 C 142.113 169.700,142.367 166.685,142.551 166.300 C 143.005 165.351,142.709 165.413,142.096 166.395 M161.599 166.249 L 160.600 166.833 161.600 166.567 C 162.714 166.270,163.014 166.081,162.766 165.833 C 162.674 165.741,162.149 165.928,161.599 166.249 M182.400 166.671 C 182.400 166.874,182.598 167.238,182.840 167.480 C 183.160 167.800,183.051 168.149,182.440 168.760 C 181.978 169.222,181.752 169.600,181.938 169.600 C 183.139 169.600,183.914 167.558,183.000 166.800 C 182.670 166.526,182.400 166.468,182.400 166.671 M160.454 167.886 C 160.404 168.713,161.800 169.934,162.264 169.469 C 162.372 169.361,162.098 169.158,161.655 169.018 C 161.213 168.877,160.774 168.366,160.680 167.881 L 160.509 167.000 160.454 167.886 M166.600 167.600 C 166.464 167.820,165.958 168.006,165.476 168.014 C 164.387 168.032,162.260 169.165,163.276 169.186 C 163.648 169.194,164.064 169.020,164.200 168.800 C 164.336 168.580,164.776 168.400,165.178 168.400 C 166.325 168.400,168.828 167.235,167.724 167.216 C 167.242 167.207,166.736 167.380,166.600 167.600 M176.746 167.816 C 177.486 168.137,178.431 168.400,178.846 168.400 C 179.261 168.400,179.600 168.580,179.600 168.800 C 179.600 169.020,180.005 169.199,180.500 169.198 C 181.325 169.195,181.304 169.145,180.254 168.598 C 179.624 168.269,178.780 168.000,178.378 168.000 C 177.976 168.000,177.536 167.820,177.400 167.600 C 177.264 167.380,176.758 167.207,176.276 167.216 C 175.577 167.228,175.671 167.349,176.746 167.816 M144.972 177.000 C 144.972 182.060,145.029 184.075,145.099 181.477 C 145.169 178.880,145.168 174.740,145.098 172.277 C 145.028 169.815,144.971 171.940,144.972 177.000 M135.363 178.000 C 135.363 181.630,135.423 183.115,135.498 181.300 C 135.572 179.485,135.572 176.515,135.498 174.700 C 135.423 172.885,135.363 174.370,135.363 178.000 M279.659 172.111 C 274.273 173.833,272.587 181.443,276.697 185.484 C 279.341 188.085,285.059 188.085,287.703 185.484 C 293.618 179.669,287.553 169.586,279.659 172.111 M124.913 172.966 C 125.571 173.465,125.617 174.340,125.513 184.316 C 125.451 190.260,125.535 195.041,125.700 194.939 C 126.056 194.718,126.110 173.952,125.757 173.033 C 125.624 172.685,125.219 172.406,124.857 172.413 C 124.274 172.424,124.280 172.486,124.913 172.966 M132.562 178.600 C 132.562 182.120,132.624 183.506,132.698 181.681 C 132.772 179.856,132.772 176.976,132.697 175.281 C 132.622 173.586,132.561 175.080,132.562 178.600 M219.202 176.001 C 225.993 180.359,223.708 190.762,215.728 191.821 C 211.627 192.365,208.020 190.193,206.401 186.203 C 203.366 178.726,212.324 171.588,219.202 176.001 M168.000 177.400 C 167.365 177.763,167.227 177.977,167.620 177.986 C 167.961 177.994,168.435 177.805,168.673 177.567 C 169.136 177.104,174.238 177.249,176.000 177.775 C 176.895 178.043,176.880 178.007,175.854 177.437 C 174.381 176.618,169.409 176.595,168.000 177.400 M284.069 178.262 C 284.969 179.077,284.990 179.738,284.154 181.014 C 282.553 183.457,278.912 181.063,280.330 178.500 C 280.937 177.403,282.976 177.273,284.069 178.262 M165.618 178.578 C 164.316 180.147,166.023 182.151,167.835 181.182 C 168.551 180.798,170.067 180.608,172.284 180.624 L 175.647 180.647 173.815 180.063 C 171.969 179.474,170.832 179.617,167.705 180.831 C 165.847 181.552,164.732 179.747,166.300 178.557 C 166.685 178.265,166.797 178.020,166.549 178.013 C 166.301 178.006,165.882 178.260,165.618 178.578 M177.821 178.823 C 178.724 179.822,178.181 181.018,176.848 180.968 C 176.381 180.951,176.000 181.086,176.000 181.268 C 176.000 181.779,177.317 181.638,178.100 181.043 C 178.948 180.400,179.003 179.346,178.229 178.571 C 177.339 177.682,176.985 177.900,177.821 178.823 M281.422 179.164 C 281.081 179.717,281.615 180.800,282.229 180.800 C 283.106 180.800,283.717 179.330,282.960 179.040 C 282.092 178.707,281.685 178.740,281.422 179.164 M282.800 179.800 C 282.800 180.130,282.639 180.400,282.443 180.400 C 282.246 180.400,281.982 180.130,281.855 179.800 C 281.715 179.435,281.855 179.200,282.213 179.200 C 282.536 179.200,282.800 179.470,282.800 179.800 M212.283 180.773 C 211.115 181.956,210.983 184.017,211.993 185.300 C 213.876 187.693,218.000 186.178,218.000 183.093 C 218.000 180.629,214.021 179.014,212.283 180.773 M141.606 185.033 C 141.609 185.455,141.795 186.070,142.018 186.400 C 142.315 186.838,142.352 186.676,142.156 185.800 C 141.827 184.329,141.598 184.010,141.606 185.033 M168.306 186.700 C 167.105 187.966,166.659 189.987,167.136 192.000 C 167.418 193.189,167.467 193.000,167.460 190.746 C 167.451 187.898,167.777 187.286,169.890 186.184 C 170.836 185.690,170.878 185.605,170.175 185.602 C 169.721 185.601,168.880 186.095,168.306 186.700 M174.300 186.259 C 175.015 186.612,175.600 187.023,175.600 187.174 C 175.600 187.642,176.774 189.025,176.787 188.572 C 176.810 187.812,174.553 185.600,173.764 185.609 C 173.227 185.616,173.386 185.808,174.300 186.259 M170.480 188.880 C 169.064 190.296,171.036 193.204,172.699 192.155 C 174.325 191.129,174.126 188.347,172.432 188.432 C 172.013 188.453,171.970 188.531,172.305 188.666 C 173.812 189.274,173.549 192.000,171.984 192.000 C 170.459 192.000,169.851 189.905,171.100 188.957 C 171.485 188.665,171.611 188.420,171.380 188.413 C 171.149 188.406,170.744 188.616,170.480 188.880 M175.290 193.407 C 173.664 195.136,170.424 195.427,168.875 193.984 C 168.394 193.536,168.000 193.335,168.000 193.538 C 168.000 194.372,170.049 195.200,172.110 195.200 C 174.183 195.200,176.800 193.611,176.800 192.353 C 176.800 191.832,176.719 191.888,175.290 193.407 M279.763 195.091 C 279.523 195.481,278.733 196.880,278.007 198.200 C 277.281 199.520,276.352 201.078,275.943 201.662 C 275.535 202.246,275.200 202.818,275.200 202.934 C 275.200 203.050,273.850 205.426,272.200 208.213 C 270.550 211.000,269.200 213.349,269.200 213.433 C 269.200 213.516,268.570 214.569,267.800 215.773 C 267.030 216.977,266.400 218.064,266.400 218.189 C 266.400 218.314,265.936 219.150,265.370 220.048 C 261.967 225.438,261.989 225.317,263.985 227.595 L 265.557 229.390 269.597 229.450 C 274.090 229.517,275.200 230.021,275.200 231.992 C 275.200 234.012,273.770 234.800,270.103 234.800 L 266.857 234.800 266.908 236.100 C 266.936 236.815,266.813 238.255,266.634 239.300 L 266.309 241.200 270.455 241.213 C 274.773 241.226,275.469 241.448,276.347 243.096 C 276.731 243.818,276.703 244.228,276.202 245.196 L 275.579 246.400 269.763 246.400 C 260.721 246.400,260.826 245.861,267.800 256.415 C 270.770 260.909,273.200 264.744,273.200 264.935 C 273.200 265.127,273.965 265.165,274.900 265.020 C 275.835 264.875,277.726 264.660,279.102 264.544 L 281.604 264.332 281.502 229.471 C 281.395 192.899,281.374 192.475,279.763 195.091 M145.900 205.099 C 148.375 205.169,152.425 205.169,154.900 205.099 C 157.375 205.028,155.350 204.971,150.400 204.971 C 145.450 204.971,143.425 205.028,145.900 205.099 M167.382 205.302 C 167.273 205.587,167.232 209.596,167.292 214.210 L 167.400 222.600 176.000 222.600 L 184.600 222.600 184.600 213.800 L 184.600 205.000 176.091 204.892 C 169.413 204.807,167.538 204.896,167.382 205.302 M159.370 214.400 C 159.370 219.130,159.428 221.065,159.498 218.700 C 159.569 216.335,159.569 212.465,159.498 210.100 C 159.428 207.735,159.370 209.670,159.370 214.400 M116.579 229.310 C 116.471 229.591,116.436 233.596,116.500 238.210 L 116.617 246.600 116.709 238.100 L 116.800 229.600 125.600 229.600 C 131.200 229.600,134.400 229.455,134.400 229.200 C 134.400 228.556,116.827 228.665,116.579 229.310 M141.614 229.574 C 141.172 230.400,141.019 245.864,141.443 246.967 C 141.758 247.789,158.707 247.933,159.520 247.120 C 160.139 246.501,160.198 230.717,159.586 229.574 C 158.945 228.377,142.255 228.377,141.614 229.574 M167.062 229.531 C 166.217 230.465,166.054 246.294,166.880 247.120 C 167.446 247.686,183.859 247.804,184.735 247.249 C 185.514 246.755,185.510 229.643,184.731 229.149 C 183.543 228.396,167.781 228.737,167.062 229.531 M159.260 238.400 C 159.273 244.415,159.147 246.988,158.839 246.960 C 158.598 246.938,154.620 246.893,150.000 246.860 L 141.600 246.800 141.600 238.433 C 141.600 232.116,141.722 230.016,142.100 229.861 C 142.375 229.748,146.344 229.688,150.921 229.728 L 159.241 229.800 159.260 238.400 M184.413 229.900 C 184.601 234.275,184.517 246.804,184.300 246.813 C 184.135 246.820,180.265 246.832,175.700 246.839 L 167.400 246.853 167.291 238.737 C 167.232 234.274,167.271 230.392,167.379 230.111 C 167.597 229.542,184.389 229.335,184.413 229.900 M134.395 238.326 L 134.200 246.852 125.291 246.849 C 119.818 246.847,116.471 246.992,116.614 247.223 C 116.749 247.440,120.561 247.600,125.616 247.600 C 136.055 247.600,134.872 248.875,134.709 237.800 L 134.590 229.800 134.395 238.326 M250.934 236.227 C 250.618 237.052,251.325 237.724,252.258 237.484 C 252.869 237.327,252.841 237.285,252.100 237.246 C 251.605 237.221,251.200 236.943,251.200 236.628 C 251.200 236.313,251.605 235.978,252.100 235.882 L 253.000 235.709 252.087 235.654 C 251.586 235.625,251.067 235.882,250.934 236.227 M217.862 247.131 C 216.457 248.683,217.471 250.800,219.618 250.800 C 220.495 250.800,220.926 250.516,221.379 249.640 C 222.527 247.421,219.533 245.285,217.862 247.131 M111.438 258.358 C 111.087 258.746,110.800 259.294,110.800 259.576 C 110.800 259.858,111.131 259.680,111.535 259.181 C 112.795 257.626,113.200 258.513,113.200 262.824 C 113.200 266.533,113.146 266.800,112.400 266.800 C 111.960 266.800,111.600 266.620,111.600 266.400 C 111.600 266.180,111.398 266.000,111.151 266.000 C 110.841 266.000,110.856 266.185,111.200 266.600 C 112.738 268.453,114.000 266.764,114.000 262.852 C 114.000 258.622,112.917 256.723,111.438 258.358 M122.572 258.171 C 121.041 259.290,121.345 267.270,122.914 267.168 C 123.280 267.145,123.277 267.087,122.900 266.935 C 122.306 266.695,122.179 258.984,122.764 258.622 C 124.281 257.684,125.231 264.094,123.935 266.526 C 123.514 267.316,123.533 267.347,124.135 266.851 C 126.117 265.215,124.584 256.699,122.572 258.171 M133.500 258.175 C 133.115 258.457,132.800 258.810,132.800 258.958 C 132.800 259.107,133.115 259.066,133.500 258.868 C 134.948 258.123,135.200 258.705,135.200 262.800 C 135.200 265.087,135.028 266.818,134.790 266.937 C 134.565 267.049,134.609 267.094,134.890 267.038 C 135.787 266.857,135.807 259.111,134.913 258.304 C 134.322 257.771,134.081 257.749,133.500 258.175 M155.413 258.141 C 154.814 258.579,154.686 259.211,154.707 261.638 C 154.755 267.252,154.748 267.202,155.500 267.168 C 155.918 267.150,155.999 267.056,155.700 266.935 C 155.348 266.793,155.200 265.574,155.200 262.809 C 155.200 258.880,155.430 258.249,156.700 258.692 C 157.379 258.929,157.397 266.043,156.720 266.720 C 156.399 267.041,156.385 267.200,156.677 267.200 C 157.393 267.200,157.600 266.128,157.600 262.429 C 157.600 258.447,156.892 257.059,155.413 258.141 M188.300 258.175 C 187.915 258.457,187.600 258.810,187.600 258.958 C 187.600 259.107,187.915 259.066,188.300 258.868 C 189.731 258.132,190.000 258.714,190.000 262.553 C 190.000 264.953,189.825 266.425,189.500 266.770 C 189.096 267.198,189.116 267.265,189.600 267.118 C 190.579 266.820,190.677 259.174,189.713 258.304 C 189.122 257.771,188.881 257.749,188.300 258.175 M143.823 258.889 C 143.025 260.028,142.977 265.473,143.757 266.500 C 144.472 267.443,144.930 267.391,144.414 266.426 C 143.227 264.208,144.193 257.730,145.582 258.589 C 146.187 258.963,146.140 266.800,145.533 266.800 C 145.277 266.800,145.201 266.935,145.366 267.099 C 146.531 268.264,147.450 260.761,146.386 258.774 C 145.832 257.738,144.590 257.794,143.823 258.889 M165.862 258.731 C 164.589 260.138,165.101 267.200,166.476 267.200 C 166.729 267.200,166.635 266.881,166.262 266.469 C 164.571 264.600,165.619 258.013,167.500 258.687 C 168.128 258.913,168.212 266.628,167.590 266.937 C 167.365 267.049,167.410 267.094,167.690 267.038 C 168.382 266.899,168.628 259.357,167.966 258.559 C 167.337 257.801,166.654 257.857,165.862 258.731 M176.765 258.642 C 175.471 260.202,176.039 267.200,177.460 267.200 C 177.976 267.200,177.980 267.123,177.488 266.631 C 176.402 265.545,176.688 258.400,177.818 258.400 C 178.992 258.400,179.611 265.137,178.592 266.826 C 178.296 267.317,178.344 267.321,178.923 266.851 C 179.760 266.172,179.922 259.282,179.120 258.480 C 178.450 257.810,177.396 257.882,176.765 258.642 M225.800 272.800 C 225.664 273.020,225.236 273.200,224.848 273.200 C 223.784 273.200,220.884 275.870,219.914 277.743 C 216.222 284.871,223.337 293.915,230.772 291.545 C 242.136 287.921,239.994 272.440,228.124 272.406 C 226.982 272.403,225.936 272.580,225.800 272.800 M278.200 272.800 C 278.064 273.020,277.636 273.200,277.248 273.200 C 273.785 273.200,270.360 280.586,271.832 284.879 C 273.397 289.441,281.369 294.239,283.000 291.600 C 283.136 291.380,283.600 291.200,284.032 291.200 C 285.168 291.200,287.781 289.440,288.909 287.915 C 292.320 283.303,290.659 275.934,285.685 273.613 C 285.088 273.334,284.287 272.948,283.905 272.753 C 282.954 272.269,278.505 272.306,278.200 272.800 M230.469 280.262 C 232.073 281.714,230.885 284.800,228.721 284.800 C 227.552 284.800,226.000 283.280,226.000 282.135 C 226.000 279.960,228.826 278.776,230.469 280.262 M283.253 280.461 C 284.238 281.597,284.197 282.739,283.130 283.874 C 281.479 285.632,278.700 284.581,278.700 282.200 C 278.700 279.846,281.719 278.693,283.253 280.461 M227.319 281.558 C 226.781 282.420,227.708 283.600,228.924 283.600 C 229.628 283.600,230.253 281.932,229.814 281.223 C 229.387 280.532,227.829 280.742,227.319 281.558 M280.000 281.163 C 280.000 281.362,280.328 281.439,280.728 281.335 C 281.798 281.055,282.591 282.144,281.797 282.802 C 281.293 283.221,281.035 283.177,280.334 282.555 C 279.490 281.806,279.487 281.807,279.956 282.700 C 280.547 283.827,281.646 283.859,282.327 282.769 C 282.728 282.127,282.738 281.808,282.374 281.369 C 281.856 280.744,280.000 280.583,280.000 281.163 M229.600 282.013 C 229.600 282.980,228.456 283.538,227.997 282.795 C 227.527 282.034,227.969 281.200,228.843 281.200 C 229.337 281.200,229.600 281.482,229.600 282.013 M144.607 282.478 C 141.437 283.676,140.723 288.009,143.406 289.767 C 145.170 290.923,158.395 290.683,159.530 289.474 C 160.773 288.151,160.609 287.682,159.345 288.945 L 158.291 290.000 151.215 290.000 C 142.997 290.000,142.400 289.760,142.400 286.456 C 142.400 283.126,143.189 282.800,151.260 282.800 L 158.156 282.800 159.331 283.900 C 159.977 284.505,160.425 284.741,160.327 284.424 C 159.686 282.349,148.587 280.975,144.607 282.478 M160.493 286.400 C 160.493 287.170,160.575 287.485,160.676 287.100 C 160.776 286.715,160.776 286.085,160.676 285.700 C 160.575 285.315,160.493 285.630,160.493 286.400 " stroke="none" fill="#9cccc3" fill-rule="evenodd"></path><path id="path1" d="M110.400 99.657 C 106.647 100.688,103.722 103.103,101.990 106.600 L 101.000 108.600 100.897 199.278 L 100.795 289.956 101.644 292.278 C 102.558 294.776,106.587 299.200,107.948 299.200 C 108.329 299.200,108.865 299.425,109.140 299.700 C 109.534 300.094,118.469 300.200,151.120 300.200 L 192.600 300.200 194.721 299.106 C 197.125 297.866,199.282 295.752,200.542 293.400 C 201.378 291.840,201.405 291.293,201.600 271.600 L 201.800 251.400 207.100 251.288 C 211.336 251.199,212.400 251.285,212.400 251.716 C 212.400 252.013,212.895 252.801,213.500 253.467 C 219.656 260.243,230.259 253.496,226.213 245.376 C 223.564 240.060,215.642 239.642,212.932 244.675 L 212.218 246.000 206.893 246.000 L 201.568 246.000 201.684 242.700 L 201.800 239.400 219.453 239.296 L 237.105 239.192 237.791 241.296 C 238.168 242.453,239.089 244.255,239.838 245.301 C 240.587 246.346,241.200 247.370,241.200 247.575 C 241.200 247.897,234.349 259.157,232.423 262.000 C 232.051 262.550,231.629 263.315,231.486 263.700 C 231.268 264.285,230.711 264.400,228.107 264.400 C 218.308 264.400,209.115 274.461,210.620 283.537 C 211.997 291.838,216.503 297.064,224.428 299.552 C 226.200 300.108,232.264 300.144,232.600 299.600 C 232.736 299.380,233.192 299.200,233.613 299.200 C 239.857 299.200,246.672 289.587,246.332 281.258 C 246.109 275.795,241.381 267.267,238.534 267.191 C 238.350 267.186,237.803 266.871,237.317 266.491 L 236.435 265.800 238.239 263.000 C 239.231 261.460,240.221 259.840,240.439 259.400 C 241.534 257.186,245.226 251.450,245.899 250.915 C 246.353 250.556,246.722 250.544,247.332 250.871 C 248.052 251.256,253.153 251.381,256.588 251.098 C 257.697 251.007,257.996 251.333,261.080 256.000 C 264.773 261.590,264.466 261.131,267.198 265.132 C 269.321 268.241,269.565 268.974,268.599 269.345 C 268.269 269.472,267.276 270.693,266.393 272.059 C 256.359 287.584,272.427 306.064,289.060 298.128 C 302.190 291.863,302.296 272.437,289.234 266.164 L 286.811 265.000 286.805 229.705 L 286.800 194.410 288.392 193.405 C 289.268 192.852,290.130 192.400,290.309 192.400 C 291.517 192.400,295.416 187.375,296.526 184.387 C 300.047 174.910,290.596 162.945,280.886 164.586 C 279.304 164.853,278.826 164.549,277.764 162.600 C 276.260 159.840,275.132 157.876,274.230 156.448 C 273.664 155.550,273.200 154.714,273.200 154.589 C 273.200 154.464,272.570 153.377,271.800 152.173 C 271.030 150.969,270.400 149.913,270.400 149.825 C 270.400 149.737,269.301 147.806,267.959 145.533 C 262.201 135.787,261.740 136.800,271.938 136.800 C 281.069 136.800,281.600 136.665,281.600 134.338 C 281.600 131.945,280.469 131.600,272.631 131.600 C 266.006 131.600,265.535 131.552,265.814 130.900 C 265.978 130.515,266.198 129.705,266.302 129.100 L 266.491 128.000 272.987 128.000 C 280.125 128.000,281.600 127.500,281.600 125.081 C 281.600 122.967,280.515 122.618,273.275 122.400 L 266.631 122.200 266.371 120.922 C 266.014 119.174,265.443 119.244,280.236 119.222 C 294.546 119.202,294.400 119.226,294.400 116.831 C 294.400 114.326,294.895 114.400,278.165 114.400 L 262.890 114.400 260.945 113.086 C 252.229 107.198,241.437 110.472,237.806 120.104 L 237.088 122.008 219.444 121.904 L 201.800 121.800 201.800 118.200 L 201.800 114.600 207.200 114.485 C 213.048 114.360,214.400 114.523,214.400 115.353 C 214.400 117.101,218.114 119.200,221.206 119.200 C 229.634 119.200,231.529 107.856,223.651 104.564 C 220.331 103.176,217.243 104.323,214.181 108.081 C 213.391 109.051,213.193 109.087,208.381 109.128 C 201.689 109.184,201.552 109.147,200.669 107.011 C 199.190 103.431,195.904 100.693,191.800 99.622 C 189.704 99.075,112.397 99.108,110.400 99.657 M223.251 105.379 C 228.589 107.669,229.496 113.230,225.140 116.959 C 220.923 120.568,214.400 117.545,214.400 111.981 C 214.400 106.928,218.951 103.534,223.251 105.379 M219.158 109.314 C 216.887 111.044,218.261 114.800,221.165 114.800 C 223.523 114.800,225.006 111.035,223.269 109.462 C 222.417 108.691,220.086 108.607,219.158 109.314 M222.571 110.229 C 224.053 111.710,222.617 114.342,220.603 113.836 C 218.232 113.241,218.370 109.600,220.763 109.600 C 221.412 109.600,222.226 109.883,222.571 110.229 M158.191 112.390 C 160.067 114.463,158.328 115.200,151.564 115.200 C 144.280 115.200,143.262 114.788,144.243 112.233 C 144.654 111.162,157.207 111.303,158.191 112.390 M254.260 116.900 C 255.466 117.222,256.716 117.969,257.775 119.000 C 264.453 125.504,257.211 136.491,248.662 132.827 C 238.963 128.669,244.057 114.174,254.260 116.900 M250.579 124.023 C 249.776 124.910,250.022 125.748,251.327 126.571 C 252.810 127.507,254.329 125.072,253.056 123.799 C 252.235 122.978,251.462 123.048,250.579 124.023 M252.800 125.000 C 252.800 125.723,252.585 126.000,252.024 126.000 C 251.103 126.000,250.642 125.389,250.952 124.581 C 251.350 123.545,252.800 123.874,252.800 125.000 M194.800 199.202 L 194.800 271.204 151.300 271.102 L 107.800 271.000 107.687 200.400 C 107.625 161.570,107.678 129.215,107.805 128.500 L 108.036 127.200 151.418 127.200 L 194.800 127.200 194.800 199.202 M237.362 128.539 C 238.742 135.892,247.231 141.370,254.770 139.771 C 258.274 139.029,258.110 138.993,259.003 140.700 C 259.435 141.525,260.376 143.136,261.094 144.281 C 261.812 145.425,262.400 146.446,262.400 146.548 C 262.400 146.651,263.480 148.564,264.800 150.800 C 266.120 153.036,267.200 154.944,267.200 155.041 C 267.200 155.137,267.660 155.944,268.221 156.834 C 268.783 157.724,269.614 159.115,270.067 159.926 C 270.520 160.737,271.618 162.627,272.507 164.127 L 274.124 166.855 272.147 168.584 C 266.748 173.307,265.665 181.432,269.588 187.781 C 270.469 189.206,273.835 192.400,274.456 192.400 C 275.085 192.400,274.814 193.163,273.400 195.373 C 272.630 196.577,272.000 197.664,272.000 197.789 C 272.000 197.914,271.540 198.744,270.979 199.634 C 269.988 201.203,269.702 201.698,267.496 205.660 C 266.926 206.683,265.997 208.255,265.430 209.152 C 264.864 210.050,264.400 210.886,264.400 211.011 C 264.400 211.136,263.770 212.223,263.000 213.427 C 262.230 214.631,261.600 215.699,261.600 215.801 C 261.600 215.903,260.880 217.162,260.000 218.600 C 259.120 220.038,258.400 221.372,258.400 221.564 C 258.400 222.249,257.291 222.320,254.786 221.797 C 248.971 220.584,241.108 224.115,238.905 228.930 C 237.943 231.033,237.633 231.851,237.515 232.600 C 237.391 233.386,237.080 233.400,219.595 233.400 L 201.800 233.400 201.699 180.300 L 201.597 127.200 219.354 127.200 L 237.111 127.200 237.362 128.539 M121.971 136.373 C 116.453 138.477,112.211 142.855,109.971 148.756 C 109.318 150.477,109.297 158.657,109.944 159.304 C 110.195 159.555,110.400 160.088,110.400 160.488 C 110.400 160.888,110.850 161.929,111.400 162.800 C 111.950 163.671,112.400 164.524,112.400 164.695 C 112.400 165.427,117.700 170.025,119.468 170.827 C 122.124 172.031,121.987 171.310,121.994 184.106 L 122.000 195.612 123.285 196.393 C 124.524 197.147,124.613 197.150,125.785 196.465 L 127.000 195.756 127.200 184.606 L 127.400 173.457 128.600 173.130 C 130.754 172.544,130.800 172.669,130.800 179.129 C 130.800 185.739,131.343 187.200,133.799 187.200 C 136.424 187.200,136.800 186.023,136.800 177.818 C 136.800 172.118,136.917 170.400,137.304 170.400 C 137.581 170.400,138.282 169.961,138.861 169.424 C 140.387 168.009,140.400 168.080,140.400 177.991 C 140.400 188.210,140.561 188.800,143.346 188.800 C 146.427 188.800,146.345 189.344,146.425 168.399 C 146.503 148.201,146.567 148.896,144.227 144.728 C 140.136 137.444,129.568 133.477,121.971 136.373 M217.092 137.431 C 216.381 138.438,215.285 140.193,214.656 141.331 C 212.341 145.521,211.640 146.754,210.719 148.260 C 210.201 149.107,209.435 150.460,209.016 151.266 L 208.255 152.732 210.879 157.266 C 212.322 159.760,213.901 162.520,214.388 163.400 C 218.012 169.953,217.389 169.587,224.927 169.594 C 232.399 169.601,232.084 168.947,227.974 175.916 C 226.455 178.492,225.209 180.933,225.206 181.340 C 225.200 182.107,227.207 185.966,230.395 191.317 C 231.591 193.324,231.687 193.288,225.282 193.223 C 218.708 193.157,218.056 193.372,216.332 196.167 C 215.067 198.219,214.636 198.967,212.624 202.600 C 212.015 203.700,211.379 204.780,211.211 205.000 C 208.124 209.046,207.995 210.590,210.400 214.677 C 211.500 216.546,212.400 218.145,212.400 218.230 C 212.400 218.315,212.991 219.333,213.714 220.492 C 214.437 221.652,215.370 223.260,215.787 224.066 C 217.644 227.657,216.734 227.400,227.615 227.400 L 237.276 227.400 238.191 226.253 C 238.694 225.622,239.491 224.362,239.962 223.453 C 241.025 221.400,242.265 219.196,243.810 216.608 C 247.865 209.820,248.024 211.265,242.159 201.548 C 240.177 198.263,239.952 198.401,247.300 198.394 C 250.875 198.391,253.982 198.256,254.204 198.094 C 254.619 197.791,256.800 194.555,256.800 194.241 C 256.800 194.144,257.880 192.236,259.200 190.000 C 260.520 187.764,261.600 185.856,261.600 185.759 C 261.600 185.663,262.050 184.871,262.600 184.000 C 263.938 181.880,263.862 180.771,262.200 178.173 C 261.430 176.969,260.800 175.910,260.800 175.820 C 260.800 175.325,254.660 165.382,254.084 164.945 C 253.595 164.574,251.680 164.422,247.367 164.413 C 240.661 164.399,240.495 164.352,241.612 162.783 C 242.045 162.175,242.400 161.561,242.400 161.419 C 242.400 161.277,242.996 160.225,243.724 159.081 C 244.453 157.936,245.175 156.730,245.329 156.400 C 245.483 156.070,245.954 155.260,246.375 154.600 C 247.407 152.984,247.378 152.265,246.200 150.400 C 245.650 149.529,245.200 148.726,245.200 148.616 C 245.200 148.506,244.570 147.431,243.800 146.227 C 243.030 145.023,242.400 143.957,242.400 143.857 C 242.400 143.392,238.177 136.543,237.625 136.113 C 237.176 135.762,234.383 135.622,227.692 135.613 L 218.384 135.600 217.092 137.431 M132.827 137.037 C 141.590 139.608,147.098 148.241,145.592 157.044 C 145.312 158.684,144.929 160.120,144.741 160.236 C 144.268 160.529,144.312 162.298,144.800 162.600 C 145.540 163.057,145.322 186.620,144.571 187.371 C 143.813 188.130,143.229 188.149,142.300 187.443 C 141.416 186.772,141.212 166.948,142.080 166.080 C 143.366 164.794,141.674 165.819,139.945 167.374 C 138.860 168.349,137.263 169.474,136.396 169.874 C 134.902 170.562,134.327 171.200,135.200 171.200 C 136.067 171.200,135.699 184.987,134.810 185.791 C 134.068 186.462,133.959 186.465,133.000 185.837 L 131.980 185.169 132.090 178.684 C 132.198 172.302,132.214 172.198,133.100 172.072 C 133.595 172.002,134.000 171.756,134.000 171.526 C 134.000 171.271,133.570 171.211,132.900 171.374 C 132.295 171.521,130.810 171.731,129.600 171.841 C 126.149 172.156,125.410 172.370,125.942 172.902 C 126.263 173.223,126.400 176.561,126.400 184.071 L 126.400 194.782 125.348 195.471 C 123.010 197.003,122.773 195.823,122.894 183.266 L 123.000 172.236 124.000 171.999 C 125.058 171.749,124.332 171.200,122.943 171.200 C 120.431 171.200,114.783 166.866,112.818 163.431 C 104.745 149.322,117.473 132.533,132.827 137.037 M166.800 136.800 C 166.250 136.976,165.186 137.138,164.435 137.160 C 163.040 137.201,159.154 138.203,157.905 138.843 C 157.523 139.040,156.955 139.200,156.642 139.200 C 155.853 139.200,151.991 141.180,150.900 142.144 C 148.917 143.896,151.213 148.041,153.500 146.839 C 153.885 146.637,155.190 146.025,156.400 145.480 C 158.515 144.528,159.677 144.148,163.600 143.126 C 165.988 142.505,177.012 142.236,178.800 142.755 C 179.570 142.979,181.280 143.461,182.600 143.827 C 183.920 144.193,185.540 144.729,186.201 145.018 C 190.834 147.045,190.988 147.089,192.000 146.653 C 193.775 145.889,194.302 143.120,192.900 141.930 C 192.005 141.170,187.756 139.200,187.013 139.200 C 186.702 139.200,186.348 139.040,186.227 138.844 C 186.106 138.649,185.421 138.392,184.704 138.275 C 183.987 138.158,182.500 137.860,181.400 137.613 C 180.300 137.366,178.632 136.993,177.694 136.782 C 175.675 136.330,168.230 136.342,166.800 136.800 M179.400 138.200 C 180.500 138.333,181.760 138.587,182.200 138.765 C 182.640 138.943,184.080 139.420,185.400 139.825 C 191.828 141.800,194.366 144.132,191.650 145.569 C 191.205 145.805,190.078 145.486,188.071 144.557 C 186.459 143.810,184.805 143.200,184.394 143.200 C 183.983 143.200,183.548 143.039,183.426 142.842 C 183.305 142.645,182.529 142.390,181.703 142.275 C 180.876 142.160,179.390 141.878,178.400 141.650 C 176.050 141.108,167.449 141.101,165.400 141.640 C 164.520 141.871,163.080 142.217,162.200 142.409 C 158.909 143.125,158.270 143.332,156.576 144.233 C 153.471 145.884,150.800 145.772,150.800 143.992 C 150.800 143.226,155.416 140.400,156.667 140.400 C 156.966 140.400,157.523 140.233,157.905 140.029 C 159.239 139.316,162.762 138.400,164.275 138.372 C 165.114 138.356,166.160 138.182,166.600 137.984 C 167.413 137.619,175.757 137.759,179.400 138.200 M125.400 140.351 C 119.657 141.349,114.677 146.713,114.138 152.480 C 113.029 164.362,125.343 172.226,135.400 166.059 C 148.389 158.094,140.468 137.732,125.400 140.351 M234.914 141.600 C 235.012 141.710,235.682 142.880,236.403 144.200 C 237.123 145.520,238.048 147.078,238.457 147.662 C 238.865 148.246,239.200 148.834,239.200 148.970 C 239.200 149.105,239.673 149.965,240.251 150.881 C 241.016 152.093,241.197 152.716,240.915 153.173 C 240.702 153.518,240.063 154.637,239.494 155.660 C 238.926 156.683,237.997 158.255,237.430 159.152 C 236.864 160.050,236.400 160.881,236.400 161.000 C 236.400 161.119,235.945 161.937,235.389 162.818 L 234.378 164.419 227.700 164.310 C 221.486 164.208,220.994 164.145,220.611 163.400 C 220.385 162.960,219.212 160.890,218.004 158.800 C 214.066 151.984,214.322 152.918,215.701 150.400 C 216.364 149.190,217.043 148.020,217.211 147.800 C 217.475 147.455,218.140 146.284,220.164 142.608 C 221.011 141.070,221.437 140.995,228.173 141.200 C 231.783 141.310,234.816 141.490,234.914 141.600 M134.200 142.616 C 136.787 144.067,138.479 145.834,139.597 148.255 C 140.091 149.325,140.654 150.513,140.848 150.895 C 143.121 155.377,138.237 164.551,132.539 166.500 C 119.065 171.108,108.677 154.066,119.146 144.526 C 123.049 140.969,129.746 140.120,134.200 142.616 M124.400 144.708 C 114.835 149.193,117.574 162.989,128.029 162.989 C 134.389 162.989,139.756 155.956,137.257 150.895 C 135.426 147.184,134.279 145.955,131.484 144.703 C 129.535 143.831,126.265 143.833,124.400 144.708 M131.280 145.776 C 138.696 148.874,137.838 159.803,130.019 161.831 C 123.760 163.455,118.106 157.656,119.877 151.430 C 121.280 146.499,126.645 143.839,131.280 145.776 M224.792 145.732 C 218.241 148.770,218.434 157.557,225.108 160.139 C 229.117 161.690,233.173 159.710,235.015 155.303 C 237.383 149.636,230.424 143.121,224.792 145.732 M231.320 147.241 C 236.801 150.775,234.377 159.600,227.925 159.600 C 223.766 159.600,221.013 156.877,221.013 152.762 C 221.013 147.470,226.836 144.352,231.320 147.241 M125.749 149.172 C 123.379 150.190,122.411 154.168,123.992 156.389 C 126.830 160.374,132.800 158.520,132.800 153.654 C 132.800 150.080,129.105 147.731,125.749 149.172 M166.600 150.024 C 159.360 151.151,154.800 153.392,154.800 155.823 C 154.800 158.760,156.957 159.545,160.238 157.800 C 161.273 157.250,162.455 156.800,162.865 156.800 C 163.275 156.800,163.923 156.634,164.305 156.432 C 166.028 155.518,171.936 155.062,175.500 155.567 C 177.425 155.840,179.313 156.229,179.695 156.432 C 180.077 156.634,180.652 156.800,180.973 156.800 C 181.295 156.800,182.404 157.250,183.438 157.800 C 187.188 159.794,190.266 157.977,188.756 154.663 C 188.268 153.592,187.917 153.392,182.800 151.269 C 179.688 149.978,171.122 149.320,166.600 150.024 M130.674 150.870 C 132.990 153.045,131.158 157.600,127.967 157.600 C 124.647 157.600,122.938 153.407,125.254 150.943 C 126.462 149.657,129.342 149.618,130.674 150.870 M225.509 150.700 C 222.750 153.843,226.867 157.969,229.818 155.018 C 231.078 153.758,231.101 152.023,229.874 150.870 C 228.725 149.790,226.388 149.699,225.509 150.700 M180.000 151.596 C 183.787 152.670,187.002 154.182,187.741 155.237 C 188.896 156.887,186.925 158.279,184.895 157.247 C 180.689 155.107,177.327 154.337,172.000 154.291 C 167.823 154.255,161.759 155.406,160.620 156.451 C 160.411 156.643,159.916 156.800,159.520 156.800 C 159.124 156.800,158.800 156.980,158.800 157.200 C 158.800 158.120,156.388 157.611,155.924 156.593 C 155.311 155.247,158.204 152.800,160.409 152.800 C 160.818 152.800,161.264 152.620,161.400 152.400 C 161.536 152.180,162.042 151.997,162.524 151.994 C 163.006 151.991,164.120 151.722,165.000 151.397 C 166.968 150.670,177.215 150.806,180.000 151.596 M228.700 151.052 C 230.136 151.437,230.002 154.267,228.522 154.830 C 226.377 155.645,224.499 153.303,226.003 151.689 C 226.877 150.750,227.248 150.663,228.700 151.052 M169.000 162.779 C 168.560 162.980,167.621 163.156,166.914 163.172 C 165.415 163.205,161.126 164.904,160.100 165.871 C 159.404 166.528,159.467 169.392,160.190 169.992 C 160.978 170.646,163.646 170.330,166.394 169.257 C 170.036 167.835,175.738 168.177,179.424 170.038 C 182.223 171.451,185.699 169.248,184.387 166.892 C 182.911 164.240,172.122 161.356,169.000 162.779 M176.600 164.212 C 181.034 164.870,184.404 167.249,183.038 168.758 C 182.307 169.566,179.989 169.551,179.667 168.737 C 179.593 168.551,179.210 168.400,178.816 168.400 C 178.421 168.400,177.451 168.130,176.662 167.800 C 173.890 166.642,168.566 167.082,164.200 168.830 C 161.604 169.869,160.080 169.327,160.532 167.527 C 160.768 166.588,161.440 166.177,165.000 164.793 C 167.695 163.746,171.999 163.530,176.600 164.212 M251.004 170.306 C 251.426 170.613,253.600 173.847,253.600 174.167 C 253.600 174.269,254.500 175.848,255.599 177.676 C 257.917 181.529,257.915 181.517,256.600 183.600 C 256.050 184.471,255.600 185.295,255.600 185.430 C 255.600 185.566,255.265 186.154,254.857 186.738 C 254.448 187.322,253.521 188.880,252.797 190.200 C 251.070 193.348,251.535 193.187,244.177 193.194 L 237.753 193.200 235.377 189.122 C 234.069 186.880,232.929 184.855,232.843 184.622 C 232.757 184.390,232.352 183.722,231.943 183.138 C 230.951 181.721,230.998 181.275,232.365 179.120 C 233.380 177.519,235.196 174.361,236.574 171.800 C 236.811 171.360,237.149 170.775,237.326 170.500 C 237.683 169.945,250.262 169.767,251.004 170.306 M284.267 172.100 C 291.083 173.915,292.149 183.501,285.897 186.763 C 284.423 187.532,280.026 187.554,278.577 186.800 C 270.229 182.455,275.174 169.679,284.267 172.100 M240.529 175.009 C 236.368 177.503,235.595 183.076,238.911 186.674 C 243.810 191.989,252.000 188.763,252.000 181.519 C 252.000 175.466,245.716 171.900,240.529 175.009 M209.749 176.136 C 204.843 179.516,204.456 185.989,208.931 189.819 C 214.573 194.649,223.200 190.703,223.200 183.293 C 223.200 176.415,215.381 172.255,209.749 176.136 M247.602 175.601 C 253.542 178.631,251.784 187.563,245.107 188.280 C 240.567 188.768,236.700 184.224,237.975 179.900 C 239.249 175.580,243.681 173.601,247.602 175.601 M169.200 176.000 C 168.430 176.196,167.301 176.478,166.691 176.627 C 164.293 177.211,163.334 179.846,164.829 181.746 C 165.800 182.980,166.182 183.018,168.848 182.146 C 170.982 181.448,174.941 181.581,175.737 182.377 C 176.909 183.549,180.000 181.695,180.000 179.820 C 180.000 177.119,173.640 174.869,169.200 176.000 M175.373 177.156 C 175.494 177.351,176.066 177.630,176.645 177.775 C 177.939 178.100,178.800 178.920,178.800 179.827 C 178.800 181.120,176.283 182.249,175.908 181.124 C 175.668 180.403,169.203 180.449,167.835 181.182 C 166.423 181.937,165.400 181.340,165.400 179.762 C 165.400 177.662,174.255 175.348,175.373 177.156 M280.330 178.500 C 278.912 181.063,282.553 183.457,284.154 181.014 C 284.990 179.738,284.969 179.077,284.069 178.262 C 282.976 177.273,280.937 177.403,280.330 178.500 M242.602 179.296 C 240.363 181.223,241.657 184.560,244.643 184.560 C 248.362 184.560,248.647 179.274,244.965 178.564 C 244.014 178.381,243.472 178.549,242.602 179.296 M282.960 179.040 C 283.439 179.224,283.490 179.458,283.179 180.040 C 282.683 180.965,281.774 181.030,281.441 180.164 C 281.006 179.029,281.663 178.542,282.960 179.040 M245.874 180.070 C 247.453 181.553,246.677 183.600,244.536 183.600 C 242.343 183.600,241.508 181.070,243.289 179.823 C 244.457 179.004,244.772 179.034,245.874 180.070 M216.945 181.055 C 218.214 182.323,218.287 183.673,217.173 185.238 C 215.268 187.913,210.821 186.090,211.347 182.850 C 211.813 179.978,214.884 178.993,216.945 181.055 M170.068 184.383 C 166.185 185.342,164.363 190.793,166.862 193.970 C 170.690 198.836,178.000 196.368,178.000 190.211 C 178.000 188.737,177.826 187.600,177.600 187.600 C 177.380 187.600,177.200 187.399,177.200 187.153 C 177.200 186.603,174.771 184.415,174.150 184.406 C 173.903 184.403,173.183 184.322,172.550 184.227 C 171.918 184.131,170.800 184.202,170.068 184.383 M175.700 186.920 C 179.938 191.635,173.146 198.237,168.409 194.008 C 165.694 191.584,166.962 186.023,170.354 185.473 C 172.559 185.115,174.566 185.659,175.700 186.920 M171.083 188.989 C 169.844 189.895,170.474 192.000,171.984 192.000 C 172.934 192.000,173.701 190.535,173.220 189.638 C 172.679 188.626,171.902 188.390,171.083 188.989 M281.502 229.471 L 281.604 264.332 279.102 264.544 C 277.726 264.660,275.835 264.875,274.900 265.020 C 273.965 265.165,273.200 265.127,273.200 264.935 C 273.200 264.744,270.770 260.909,267.800 256.415 C 260.826 245.861,260.721 246.400,269.763 246.400 L 275.579 246.400 276.202 245.196 C 276.703 244.228,276.731 243.818,276.347 243.096 C 275.469 241.448,274.773 241.226,270.455 241.213 L 266.309 241.200 266.634 239.300 C 266.813 238.255,266.936 236.815,266.908 236.100 L 266.857 234.800 270.103 234.800 C 273.770 234.800,275.200 234.012,275.200 231.992 C 275.200 230.021,274.090 229.517,269.597 229.450 L 265.557 229.390 263.985 227.595 C 261.989 225.317,261.967 225.438,265.370 220.048 C 265.936 219.150,266.400 218.314,266.400 218.189 C 266.400 218.064,267.030 216.977,267.800 215.773 C 268.570 214.569,269.200 213.516,269.200 213.433 C 269.200 213.349,270.550 211.000,272.200 208.213 C 273.850 205.426,275.200 203.050,275.200 202.934 C 275.200 202.818,275.535 202.246,275.943 201.662 C 276.352 201.078,277.281 199.520,278.007 198.200 C 281.638 191.598,281.385 189.327,281.502 229.471 M235.788 201.408 C 236.564 202.622,237.200 203.696,237.200 203.794 C 237.200 203.892,238.010 205.306,239.000 206.936 C 241.284 210.699,241.295 210.631,237.468 216.692 C 236.881 217.623,236.400 218.481,236.400 218.600 C 236.400 218.719,235.948 219.532,235.395 220.408 L 234.390 222.000 227.630 222.000 L 220.870 222.000 219.082 218.900 C 218.099 217.195,216.795 214.900,216.183 213.800 C 215.572 212.700,214.897 211.517,214.684 211.170 C 214.314 210.571,215.036 208.901,216.967 205.887 C 218.100 204.119,220.049 200.584,220.269 199.900 C 220.471 199.269,221.176 199.200,227.434 199.200 L 234.375 199.200 235.788 201.408 M224.515 203.368 C 218.409 206.751,218.276 214.578,224.275 217.418 C 226.400 218.424,228.959 218.714,229.400 218.000 C 229.536 217.780,229.973 217.600,230.371 217.600 C 231.689 217.600,234.668 214.185,234.964 212.334 C 235.976 206.008,229.611 200.546,224.515 203.368 M115.872 203.531 C 115.243 203.651,115.195 204.488,115.293 213.731 L 115.400 223.800 125.486 223.907 L 135.573 224.014 135.686 214.168 C 135.749 208.752,135.686 204.137,135.546 203.912 C 135.313 203.536,117.642 203.194,115.872 203.531 M141.100 203.476 C 140.456 203.644,140.400 204.479,140.400 213.829 L 140.400 224.000 150.557 224.000 C 159.450 224.000,160.745 223.921,160.957 223.367 C 161.443 222.101,161.227 204.187,160.720 203.680 C 160.250 203.210,142.810 203.029,141.100 203.476 M166.269 203.700 C 165.651 204.152,165.596 205.141,165.693 214.000 L 165.800 223.800 176.100 223.907 L 186.400 224.014 186.400 213.850 C 186.400 204.950,186.321 203.655,185.767 203.443 C 184.469 202.944,166.987 203.175,166.269 203.700 M230.200 204.352 C 236.912 207.434,234.803 217.200,227.426 217.200 C 221.005 217.200,218.254 208.585,223.555 205.077 C 226.031 203.439,227.792 203.247,230.200 204.352 M134.600 213.600 L 134.600 223.000 125.400 223.000 L 116.200 223.000 116.092 214.050 C 116.016 207.717,116.120 204.938,116.447 204.543 C 116.823 204.090,118.580 204.005,125.755 204.092 L 134.600 204.200 134.600 213.600 M159.913 205.172 C 160.071 205.597,160.110 209.782,160.000 214.472 L 159.800 223.000 150.600 223.000 L 141.400 223.000 141.287 214.600 C 141.225 209.980,141.273 205.795,141.394 205.300 L 141.615 204.400 150.621 204.400 C 159.151 204.400,159.641 204.441,159.913 205.172 M184.600 213.800 L 184.600 222.600 176.000 222.600 L 167.400 222.600 167.292 214.210 C 167.232 209.596,167.273 205.587,167.382 205.302 C 167.538 204.896,169.413 204.807,176.091 204.892 L 184.600 205.000 184.600 213.800 M226.421 207.670 C 224.265 208.468,223.738 210.974,225.382 212.618 C 227.040 214.276,229.208 213.827,230.412 211.577 C 231.587 209.381,228.902 206.753,226.421 207.670 M228.826 208.814 C 229.764 209.316,229.870 211.278,228.999 212.001 C 227.586 213.174,225.200 212.277,225.200 210.574 C 225.200 208.961,227.246 207.968,228.826 208.814 M118.493 227.916 L 115.187 228.033 115.293 238.316 L 115.400 248.600 125.469 248.707 C 134.619 248.804,135.551 248.752,135.669 248.144 C 135.741 247.776,135.749 243.100,135.686 237.755 L 135.573 228.035 128.686 227.918 C 124.899 227.853,120.312 227.852,118.493 227.916 M142.893 227.919 L 140.387 228.039 140.493 238.319 L 140.600 248.600 150.350 248.707 C 157.207 248.783,160.264 248.679,160.650 248.358 C 161.258 247.854,161.476 229.453,160.886 228.525 C 160.585 228.051,148.599 227.648,142.893 227.919 M167.800 227.952 L 165.800 228.200 165.693 238.045 C 165.606 246.064,165.689 247.976,166.143 248.353 C 166.538 248.681,169.524 248.783,176.450 248.707 L 186.200 248.600 186.307 238.627 C 186.368 232.918,186.257 228.497,186.046 228.286 C 185.617 227.857,170.756 227.585,167.800 227.952 M255.407 228.845 C 262.062 231.973,262.074 241.025,255.428 244.170 C 250.704 246.404,245.538 244.032,243.812 238.836 C 241.589 232.145,248.944 225.808,255.407 228.845 M134.548 229.700 C 134.910 231.052,134.837 246.523,134.465 247.108 C 134.217 247.499,132.122 247.591,125.371 247.508 L 116.600 247.400 116.492 238.609 C 116.433 233.775,116.472 229.590,116.579 229.309 C 116.991 228.238,134.257 228.613,134.548 229.700 M159.586 229.574 C 160.198 230.717,160.139 246.501,159.520 247.120 C 158.707 247.933,141.758 247.789,141.443 246.967 C 141.019 245.864,141.172 230.400,141.614 229.574 C 142.255 228.377,158.945 228.377,159.586 229.574 M184.731 229.149 C 185.510 229.643,185.514 246.755,184.735 247.249 C 183.859 247.804,167.446 247.686,166.880 247.120 C 166.054 246.294,166.217 230.465,167.062 229.531 C 167.781 228.737,183.543 228.396,184.731 229.149 M250.402 235.796 C 249.937 236.665,249.962 236.895,250.596 237.596 C 251.790 238.915,253.600 238.260,253.600 236.509 C 253.600 234.684,251.275 234.166,250.402 235.796 M252.800 236.600 C 252.800 237.323,252.585 237.600,252.024 237.600 C 251.103 237.600,250.642 236.989,250.952 236.181 C 251.350 235.145,252.800 235.474,252.800 236.600 M222.540 242.609 C 226.312 244.430,227.349 250.251,224.423 253.177 C 220.663 256.937,215.040 255.821,212.987 250.908 C 210.771 245.603,217.191 240.026,222.540 242.609 M217.454 246.429 C 215.559 247.919,216.334 251.092,218.743 251.707 C 221.084 252.304,223.166 249.953,222.308 247.680 C 221.524 245.603,219.249 245.017,217.454 246.429 M221.160 247.440 C 221.916 248.401,221.933 248.570,221.379 249.640 C 220.352 251.627,217.200 250.920,217.200 248.703 C 217.200 246.508,219.780 245.686,221.160 247.440 M110.470 257.726 C 109.292 258.979,109.158 266.275,110.289 267.595 C 112.674 270.381,115.200 267.812,115.200 262.600 C 115.200 257.294,113.002 255.030,110.470 257.726 M121.362 257.642 C 120.717 258.355,120.600 259.114,120.600 262.600 C 120.600 267.312,121.120 268.400,123.373 268.400 C 125.535 268.400,126.000 267.384,126.000 262.665 C 126.000 257.297,123.815 254.931,121.362 257.642 M132.500 257.470 C 131.249 258.342,131.113 266.635,132.331 267.738 C 135.025 270.176,136.800 268.101,136.800 262.515 C 136.800 257.088,135.400 255.446,132.500 257.470 M143.270 257.726 C 140.998 260.144,142.350 268.400,145.017 268.400 C 147.287 268.400,148.000 267.013,148.000 262.600 C 148.000 257.294,145.802 255.030,143.270 257.726 M154.262 257.531 C 153.241 258.659,153.297 266.802,154.331 267.738 C 156.925 270.085,158.800 267.958,158.800 262.670 C 158.800 257.398,156.618 254.928,154.262 257.531 M165.300 257.470 C 164.049 258.342,163.913 266.635,165.131 267.738 C 167.789 270.143,169.600 268.094,169.600 262.684 C 169.600 257.217,168.162 255.473,165.300 257.470 M176.029 257.854 C 174.807 259.407,174.798 266.218,176.016 267.525 C 178.525 270.218,180.800 267.938,180.800 262.728 C 180.800 258.308,180.088 256.800,178.000 256.800 C 177.243 256.800,176.579 257.155,176.029 257.854 M187.062 257.531 C 186.041 258.659,186.097 266.802,187.131 267.738 C 189.764 270.121,191.600 268.062,191.600 262.727 C 191.600 257.312,189.469 254.872,187.062 257.531 M113.631 259.081 C 114.671 261.816,113.878 267.200,112.435 267.200 C 111.164 267.200,110.783 266.203,110.704 262.675 C 110.602 258.150,112.426 255.911,113.631 259.081 M124.800 262.582 C 124.800 266.346,124.492 267.200,123.134 267.200 C 121.374 267.200,120.888 259.402,122.572 258.171 C 124.117 257.041,124.800 258.393,124.800 262.582 M135.513 262.974 L 135.400 267.000 134.200 267.000 L 133.000 267.000 132.886 262.855 C 132.786 259.255,132.865 258.640,133.486 258.185 C 135.038 257.047,135.640 258.469,135.513 262.974 M157.600 262.429 C 157.600 266.730,157.438 267.200,155.957 267.200 C 154.671 267.200,154.758 267.587,154.707 261.638 C 154.686 259.211,154.814 258.579,155.413 258.141 C 156.892 257.059,157.600 258.447,157.600 262.429 M190.313 262.974 L 190.200 267.000 188.900 267.125 L 187.600 267.251 187.600 262.969 C 187.600 258.196,188.178 256.920,189.713 258.304 C 190.324 258.855,190.410 259.527,190.313 262.974 M146.386 258.774 C 147.596 261.034,146.677 267.200,145.130 267.200 C 143.728 267.200,143.226 266.046,143.213 262.789 C 143.195 258.696,145.073 256.320,146.386 258.774 M167.966 258.559 C 168.971 259.770,168.346 266.979,167.222 267.138 C 165.694 267.354,165.200 266.260,165.200 262.655 C 165.200 258.695,166.491 256.782,167.966 258.559 M179.120 258.480 C 179.423 258.783,179.600 260.302,179.600 262.600 C 179.600 266.460,179.302 267.200,177.751 267.200 C 176.535 267.200,175.866 265.048,176.072 261.802 C 176.285 258.463,177.633 256.993,179.120 258.480 M231.799 272.969 C 238.387 275.261,240.429 283.966,235.512 288.792 C 229.004 295.178,219.064 291.075,219.058 282.000 C 219.055 278.140,222.306 273.200,224.848 273.200 C 225.236 273.200,225.664 273.020,225.800 272.800 C 226.161 272.216,229.942 272.322,231.799 272.969 M283.905 272.753 C 284.287 272.948,285.088 273.334,285.685 273.613 C 290.659 275.934,292.320 283.303,288.909 287.915 C 287.781 289.440,285.168 291.200,284.032 291.200 C 283.600 291.200,283.136 291.380,283.000 291.600 C 281.369 294.239,273.397 289.441,271.832 284.879 C 270.360 280.586,273.785 273.200,277.248 273.200 C 277.636 273.200,278.064 273.020,278.200 272.800 C 278.505 272.306,282.954 272.269,283.905 272.753 M226.689 280.405 C 224.635 282.803,227.997 286.165,230.395 284.111 C 231.416 283.237,231.455 281.155,230.469 280.262 C 229.460 279.349,227.530 279.422,226.689 280.405 M279.412 280.387 C 277.921 282.034,279.037 284.800,281.192 284.800 C 282.437 284.800,284.000 283.317,284.000 282.135 C 284.000 279.951,280.882 278.762,279.412 280.387 M229.814 281.223 C 230.253 281.932,229.628 283.600,228.924 283.600 C 227.708 283.600,226.781 282.420,227.319 281.558 C 227.829 280.742,229.387 280.532,229.814 281.223 M282.374 281.369 C 282.738 281.808,282.728 282.127,282.327 282.769 C 281.355 284.325,279.426 283.352,279.899 281.543 C 280.132 280.654,281.689 280.544,282.374 281.369 M157.640 282.404 C 160.670 283.246,161.769 287.091,159.630 289.368 L 158.661 290.400 151.516 290.400 C 143.500 290.400,142.793 290.203,141.981 287.744 C 141.245 285.511,142.342 283.318,144.607 282.496 C 146.128 281.944,155.740 281.877,157.640 282.404 " stroke="none" fill="#37687d" fill-rule="evenodd"></path><path id="path2" d="M218.597 105.339 C 211.834 109.218,213.460 118.400,220.909 118.400 C 225.919 118.400,229.407 113.380,227.329 109.161 C 225.671 105.794,221.209 103.841,218.597 105.339 M223.269 109.462 C 224.422 110.506,224.247 112.947,222.946 113.971 C 220.402 115.972,217.250 113.794,218.228 110.711 C 218.825 108.831,221.766 108.102,223.269 109.462 M249.200 116.955 C 246.930 117.673,244.245 120.710,243.636 123.250 C 241.663 131.475,252.726 137.232,258.140 130.798 C 263.833 124.033,257.556 114.313,249.200 116.955 M253.056 123.799 C 254.329 125.072,252.810 127.507,251.327 126.571 C 250.022 125.748,249.776 124.910,250.579 124.023 C 251.462 123.048,252.235 122.978,253.056 123.799 M122.735 137.168 C 109.637 141.356,105.894 158.237,116.040 167.360 C 117.988 169.111,121.742 171.200,122.943 171.200 C 124.332 171.200,125.058 171.749,124.000 171.999 L 123.000 172.236 122.990 183.418 L 122.980 194.600 123.096 183.535 L 123.213 172.471 126.706 172.218 C 128.628 172.079,130.982 171.765,131.938 171.520 C 133.111 171.219,133.761 171.207,133.938 171.483 C 134.091 171.721,134.534 171.758,135.000 171.574 C 135.440 171.399,135.575 171.244,135.300 171.228 C 134.356 171.175,134.822 170.599,136.396 169.874 C 137.263 169.474,138.860 168.349,139.945 167.374 C 141.030 166.398,142.251 165.597,142.659 165.594 C 143.236 165.589,143.278 165.510,142.849 165.239 C 142.541 165.044,142.431 164.674,142.599 164.402 C 142.830 164.027,142.979 164.040,143.244 164.457 C 143.477 164.826,143.590 164.587,143.594 163.713 C 143.598 162.787,143.754 162.484,144.149 162.636 C 144.553 162.791,144.646 162.576,144.502 161.821 C 144.394 161.257,144.486 160.571,144.706 160.298 C 144.927 160.024,145.333 158.518,145.608 156.951 C 147.842 144.263,135.075 133.221,122.735 137.168 M133.815 141.433 C 147.457 147.830,142.770 168.466,127.748 168.146 C 115.362 167.882,109.447 153.020,118.210 144.182 C 122.183 140.175,128.689 139.029,133.815 141.433 M129.633 145.352 C 130.111 145.787,133.169 147.074,132.974 146.758 C 132.848 146.555,132.106 146.121,131.324 145.794 C 129.935 145.214,129.299 145.047,129.633 145.352 M224.954 146.743 C 218.203 149.899,220.445 159.600,227.925 159.600 C 231.328 159.600,233.970 157.139,234.304 153.656 C 234.809 148.406,229.613 144.565,224.954 146.743 M133.600 147.412 C 133.600 147.562,134.050 148.219,134.600 148.873 C 135.150 149.527,135.600 149.939,135.600 149.788 C 135.600 149.638,135.150 148.981,134.600 148.327 C 134.050 147.673,133.600 147.261,133.600 147.412 M127.400 148.427 C 126.749 148.685,126.841 148.749,127.900 148.772 C 129.252 148.801,129.558 148.620,128.700 148.298 C 128.425 148.195,127.840 148.253,127.400 148.427 M124.204 149.996 C 123.574 150.654,123.156 151.289,123.275 151.408 C 123.394 151.527,123.797 151.160,124.169 150.591 C 124.542 150.022,125.241 149.398,125.723 149.204 C 126.286 148.977,126.376 148.842,125.975 148.825 C 125.631 148.811,124.834 149.338,124.204 149.996 M130.277 149.204 C 130.759 149.398,131.458 150.022,131.831 150.591 C 132.203 151.160,132.606 151.527,132.725 151.408 C 133.074 151.059,130.710 148.798,130.025 148.825 C 129.624 148.842,129.714 148.977,130.277 149.204 M229.874 150.870 C 231.101 152.023,231.078 153.758,229.818 155.018 C 226.867 157.969,222.750 153.843,225.509 150.700 C 226.388 149.699,228.725 149.790,229.874 150.870 M119.695 151.986 C 118.906 155.093,120.604 159.072,123.477 160.847 C 124.228 161.312,124.915 161.618,125.004 161.529 C 125.093 161.440,124.475 160.941,123.631 160.419 C 121.025 158.808,119.350 154.846,120.098 152.062 C 120.296 151.327,120.379 150.645,120.281 150.548 C 120.184 150.451,119.920 151.098,119.695 151.986 M122.870 153.762 C 122.795 155.859,125.055 158.813,126.717 158.791 C 127.112 158.786,126.846 158.509,126.087 158.135 C 124.304 157.256,123.284 155.702,123.097 153.576 L 122.940 151.800 122.870 153.762 M132.800 153.776 C 132.800 155.002,133.028 155.101,133.316 154.000 C 133.431 153.561,133.362 153.100,133.162 152.977 C 132.963 152.854,132.800 153.213,132.800 153.776 M131.634 156.953 L 130.669 158.200 131.813 157.112 C 132.443 156.514,132.877 155.953,132.779 155.865 C 132.680 155.777,132.165 156.267,131.634 156.953 M135.200 157.475 C 135.200 157.699,134.740 158.379,134.178 158.986 C 133.616 159.593,133.237 160.171,133.337 160.271 C 133.437 160.371,134.012 159.806,134.615 159.015 C 135.218 158.225,135.596 157.463,135.456 157.322 C 135.315 157.182,135.200 157.250,135.200 157.475 M131.200 161.033 C 130.650 161.339,129.120 161.609,127.800 161.635 C 125.680 161.676,125.559 161.719,126.760 162.003 C 128.218 162.347,131.714 161.646,132.509 160.851 C 133.109 160.251,132.442 160.344,131.200 161.033 M132.267 172.267 C 131.354 173.179,132.012 185.189,133.010 185.843 C 134.067 186.536,135.620 185.810,135.588 184.638 C 135.581 184.397,135.392 184.515,135.168 184.900 C 134.660 185.773,132.969 185.818,132.643 184.967 C 132.146 183.673,132.373 172.478,132.900 172.265 C 133.179 172.152,133.209 172.049,132.967 172.032 C 132.728 172.014,132.413 172.120,132.267 172.267 M125.913 183.734 C 126.036 195.593,125.926 196.200,123.845 195.138 C 123.046 194.730,123.037 194.745,123.676 195.415 C 124.312 196.081,124.413 196.083,125.376 195.453 L 126.400 194.782 126.400 184.014 C 126.400 178.092,126.265 173.164,126.100 173.061 C 125.935 172.959,125.851 177.762,125.913 183.734 M241.400 175.548 C 238.480 177.362,237.111 180.390,237.947 183.182 C 240.282 190.975,251.200 189.451,251.200 181.332 C 251.200 176.556,245.343 173.099,241.400 175.548 M246.900 179.646 C 247.285 180.109,247.600 180.989,247.600 181.600 C 247.600 185.566,241.625 185.564,241.512 181.597 C 241.432 178.774,245.079 177.453,246.900 179.646 M141.600 186.367 C 141.600 186.976,142.746 187.968,143.471 187.987 C 144.070 188.003,145.200 186.889,145.200 186.282 C 145.200 186.029,144.920 186.222,144.577 186.711 C 144.235 187.200,143.705 187.600,143.400 187.600 C 143.095 187.600,142.565 187.200,142.223 186.711 C 141.866 186.201,141.600 186.054,141.600 186.367 M225.825 203.890 C 218.325 205.801,219.695 217.200,227.426 217.200 C 234.803 217.200,236.912 207.434,230.200 204.352 C 228.630 203.631,227.366 203.498,225.825 203.890 M116.447 204.543 C 116.120 204.938,116.016 207.717,116.092 214.050 L 116.200 223.000 125.400 223.000 L 134.600 223.000 134.600 213.600 L 134.600 204.200 125.755 204.092 C 118.580 204.005,116.823 204.090,116.447 204.543 M150.400 204.788 L 159.400 205.000 159.508 213.900 L 159.615 222.800 150.615 222.800 L 141.615 222.800 141.496 213.900 L 141.376 205.000 141.388 214.000 L 141.400 223.000 150.600 223.000 L 159.800 223.000 160.000 214.472 C 160.266 203.148,161.438 204.382,150.513 204.488 L 141.400 204.577 150.400 204.788 M229.664 208.286 C 231.675 210.021,230.253 213.600,227.553 213.600 C 226.010 213.600,224.396 212.015,224.413 210.518 C 224.443 207.820,227.579 206.487,229.664 208.286 M248.354 228.930 C 242.750 231.678,241.714 238.233,246.198 242.568 C 253.929 250.043,265.207 239.179,258.263 230.945 C 255.892 228.133,251.712 227.283,248.354 228.930 M253.120 235.280 C 253.769 235.929,253.725 237.132,253.029 237.829 C 252.239 238.618,251.454 238.543,250.596 237.596 C 249.170 236.020,251.615 233.775,253.120 235.280 M215.638 243.219 C 212.930 245.180,211.874 248.244,212.987 250.908 C 215.906 257.893,226.000 256.385,226.000 248.964 C 226.000 243.059,220.255 239.874,215.638 243.219 M220.905 246.029 C 223.105 247.032,222.919 250.718,220.624 251.591 C 217.443 252.800,214.809 248.510,217.454 246.429 C 218.635 245.500,219.519 245.398,220.905 246.029 " stroke="none" fill="#c55547" fill-rule="evenodd"></path><path id="path3" d="M144.667 112.267 C 142.985 113.948,145.166 114.800,151.155 114.800 C 157.534 114.800,159.426 114.168,157.829 112.571 C 157.228 111.971,145.240 111.693,144.667 112.267 M251.200 125.000 C 251.200 125.333,251.556 125.600,252.000 125.600 C 252.444 125.600,252.800 125.333,252.800 125.000 C 252.800 124.667,252.444 124.400,252.000 124.400 C 251.556 124.400,251.200 124.667,251.200 125.000 M165.600 138.607 C 161.359 139.283,159.337 139.746,157.800 140.394 C 157.140 140.672,156.240 141.039,155.800 141.209 C 151.852 142.736,150.775 143.606,151.600 144.600 C 152.221 145.348,153.357 145.366,154.738 144.649 C 155.322 144.346,156.250 143.918,156.800 143.699 C 157.350 143.479,158.340 143.070,159.000 142.790 C 162.910 141.131,179.369 140.256,180.238 141.661 C 180.353 141.847,180.907 142.000,181.470 142.000 C 182.447 142.000,186.381 143.181,186.800 143.600 C 187.135 143.935,189.731 144.879,190.900 145.091 C 192.481 145.378,192.577 142.960,191.000 142.564 C 190.450 142.426,190.000 142.198,190.000 142.057 C 190.000 141.915,188.910 141.452,187.578 141.026 C 186.246 140.600,185.065 140.105,184.954 139.926 C 184.843 139.747,184.144 139.600,183.400 139.600 C 182.656 139.600,181.949 139.442,181.830 139.249 C 181.280 138.358,169.966 137.911,165.600 138.607 M125.800 146.000 C 125.664 146.220,125.248 146.403,124.876 146.406 C 124.089 146.414,122.072 148.147,121.133 149.624 C 120.490 150.634,120.194 152.862,120.338 155.600 C 120.412 157.005,122.935 160.400,123.906 160.400 C 124.141 160.400,124.396 160.589,124.473 160.820 C 124.689 161.467,130.998 161.400,131.828 160.742 C 134.618 158.531,136.010 156.128,135.994 153.554 C 135.977 150.836,133.087 146.412,131.324 146.404 C 130.842 146.402,130.336 146.220,130.200 146.000 C 130.064 145.780,129.074 145.600,128.000 145.600 C 126.926 145.600,125.936 145.780,125.800 146.000 M129.400 148.400 C 129.536 148.620,129.915 148.800,130.242 148.800 C 133.484 148.800,134.353 155.093,131.472 157.700 C 126.769 161.954,119.597 154.807,123.900 150.155 C 125.613 148.303,128.726 147.310,129.400 148.400 M166.000 151.600 C 165.670 151.813,164.911 151.991,164.314 151.994 C 163.346 151.999,161.536 152.622,159.505 153.649 C 159.123 153.842,158.583 154.006,158.305 154.013 C 157.718 154.029,156.000 155.385,156.000 155.833 C 156.000 156.888,157.330 157.570,158.354 157.040 C 165.153 153.517,178.044 152.493,180.980 155.244 C 181.189 155.440,181.674 155.600,182.059 155.600 C 182.443 155.600,183.578 156.036,184.581 156.569 C 186.449 157.563,187.600 157.293,187.600 155.860 C 187.600 155.256,186.165 154.000,185.475 154.000 C 185.192 154.000,184.789 153.852,184.580 153.671 C 184.371 153.490,183.120 153.023,181.800 152.634 C 180.480 152.245,178.847 151.763,178.172 151.563 C 176.533 151.079,166.761 151.108,166.000 151.600 M144.494 163.700 C 144.442 164.085,144.220 164.400,144.000 164.400 C 143.780 164.400,143.600 164.670,143.600 165.000 C 143.600 165.330,143.449 165.600,143.264 165.600 C 142.273 165.600,141.997 168.017,142.016 176.523 C 142.038 186.246,142.144 187.200,143.194 187.200 C 144.732 187.200,144.816 186.492,144.700 174.552 C 144.638 168.198,144.545 163.315,144.494 163.700 M166.600 164.838 C 165.720 165.058,164.505 165.340,163.900 165.464 C 163.295 165.589,162.800 165.831,162.800 166.002 C 162.800 166.173,162.350 166.426,161.800 166.564 C 161.079 166.745,160.800 167.084,160.800 167.781 C 160.800 169.050,162.015 169.420,163.560 168.621 C 164.220 168.279,165.119 168.000,165.557 168.000 C 165.994 168.000,166.464 167.820,166.600 167.600 C 166.744 167.367,168.996 167.200,172.000 167.200 C 175.004 167.200,177.256 167.367,177.400 167.600 C 177.536 167.820,177.976 168.000,178.378 168.000 C 178.780 168.000,179.624 168.269,180.254 168.598 C 181.748 169.377,182.289 169.354,182.750 168.494 C 183.342 167.388,181.449 165.600,179.685 165.600 C 179.286 165.600,178.762 165.402,178.519 165.159 C 177.933 164.573,168.660 164.323,166.600 164.838 M134.676 171.900 C 134.498 172.175,133.999 172.400,133.566 172.400 C 132.505 172.400,132.538 185.309,133.600 185.494 C 135.098 185.755,135.223 185.146,135.110 178.170 C 135.049 174.447,134.854 171.625,134.676 171.900 M123.200 183.351 C 123.200 194.845,123.331 195.696,124.995 195.057 C 125.983 194.678,125.893 173.711,124.900 172.957 C 123.231 171.690,123.200 171.883,123.200 183.351 M168.400 177.577 C 168.070 177.759,167.305 178.139,166.700 178.421 C 164.645 179.381,165.591 181.651,167.705 180.831 C 171.180 179.481,171.945 179.429,174.646 180.356 C 177.302 181.268,178.400 181.105,178.400 179.800 C 178.400 177.949,170.796 176.259,168.400 177.577 M281.855 179.800 C 281.982 180.130,282.246 180.400,282.443 180.400 C 282.639 180.400,282.800 180.130,282.800 179.800 C 282.800 179.470,282.536 179.200,282.213 179.200 C 281.855 179.200,281.715 179.435,281.855 179.800 M169.890 186.184 C 167.026 187.678,166.342 191.825,168.633 193.796 C 171.459 196.226,176.800 194.117,176.800 190.571 C 176.800 186.967,173.006 184.558,169.890 186.184 M173.614 189.426 C 174.203 190.527,173.914 191.389,172.699 192.155 C 171.681 192.797,170.000 191.712,170.000 190.412 C 170.000 188.252,172.605 187.541,173.614 189.426 M141.692 213.900 L 141.800 222.600 150.500 222.708 L 159.200 222.816 159.200 214.641 C 159.200 210.144,159.309 206.181,159.443 205.833 C 159.660 205.267,158.724 205.200,150.635 205.200 L 141.584 205.200 141.692 213.900 M116.800 238.000 C 116.800 242.620,116.800 246.501,116.800 246.625 C 116.800 246.749,120.715 246.850,125.500 246.850 L 134.200 246.850 134.308 238.225 L 134.416 229.600 125.608 229.600 L 116.800 229.600 116.800 238.000 M142.100 229.861 C 141.722 230.016,141.600 232.116,141.600 238.433 L 141.600 246.800 150.000 246.860 C 154.620 246.893,158.598 246.938,158.839 246.960 C 159.147 246.988,159.273 244.415,159.260 238.400 L 159.241 229.800 150.921 229.728 C 146.344 229.688,142.375 229.748,142.100 229.861 M167.379 230.111 C 167.271 230.392,167.232 234.274,167.291 238.737 L 167.400 246.853 175.700 246.839 C 180.265 246.832,184.135 246.820,184.300 246.813 C 184.517 246.804,184.601 234.275,184.413 229.900 C 184.389 229.335,167.597 229.542,167.379 230.111 M251.200 236.600 C 251.200 236.933,251.556 237.200,252.000 237.200 C 252.444 237.200,252.800 236.933,252.800 236.600 C 252.800 236.267,252.444 236.000,252.000 236.000 C 251.556 236.000,251.200 236.267,251.200 236.600 M111.424 259.308 C 110.682 260.440,110.716 265.499,111.471 266.300 C 112.851 267.764,113.232 266.937,113.114 262.732 C 112.993 258.418,112.569 257.559,111.424 259.308 M122.667 258.667 C 122.079 259.254,122.374 266.704,122.994 266.942 C 123.967 267.316,124.400 265.876,124.400 262.269 C 124.400 259.553,124.275 258.838,123.767 258.643 C 122.984 258.342,122.991 258.342,122.667 258.667 M133.476 258.862 C 132.523 259.395,132.493 265.398,133.438 266.442 C 134.751 267.893,135.200 266.966,135.200 262.800 C 135.200 258.715,134.912 258.058,133.476 258.862 M144.485 258.875 C 143.888 259.472,143.826 265.328,144.406 266.411 C 145.431 268.327,146.031 266.845,145.913 262.685 C 145.802 258.725,145.484 257.876,144.485 258.875 M155.700 258.692 C 154.951 258.953,154.999 266.637,155.751 266.926 C 156.839 267.343,157.200 266.256,157.200 262.563 C 157.200 258.886,156.955 258.254,155.700 258.692 M166.276 258.862 C 165.323 259.395,165.293 265.398,166.238 266.442 C 167.551 267.893,168.000 266.966,168.000 262.800 C 168.000 258.715,167.712 258.058,166.276 258.862 M177.034 259.500 C 176.282 263.096,177.291 268.069,178.522 266.838 C 179.036 266.324,179.198 260.053,178.722 259.100 C 178.195 258.045,177.293 258.259,177.034 259.500 M188.276 258.862 C 187.316 259.399,187.289 265.632,188.242 266.585 C 189.487 267.830,190.000 266.665,190.000 262.594 C 190.000 258.723,189.697 258.066,188.276 258.862 M227.880 281.736 C 227.572 282.538,228.230 283.351,228.960 283.071 C 229.883 282.717,229.788 281.200,228.843 281.200 C 228.426 281.200,227.993 281.441,227.880 281.736 M280.176 281.638 C 280.027 281.879,280.188 282.359,280.533 282.704 C 281.367 283.538,282.699 282.643,281.956 281.747 C 281.410 281.089,280.549 281.036,280.176 281.638 M143.382 283.782 C 142.030 285.134,142.001 287.886,143.326 289.130 C 144.204 289.955,144.614 290.000,151.271 290.000 L 158.291 290.000 159.345 288.945 C 160.826 287.465,160.798 285.331,159.278 283.875 L 158.156 282.800 151.260 282.800 C 144.471 282.800,144.348 282.815,143.382 283.782 " stroke="none" fill="#efebcd" fill-rule="evenodd"></path><path id="path4" d="M107.805 128.500 C 107.678 129.215,107.625 161.570,107.687 200.400 L 107.800 271.000 151.300 271.102 L 194.800 271.204 194.800 199.202 L 194.800 127.200 151.418 127.200 L 108.036 127.200 107.805 128.500 M133.600 136.237 C 139.421 138.261,143.418 142.123,145.775 148.000 C 146.976 150.996,146.738 186.589,145.507 187.899 C 144.386 189.092,142.315 189.104,141.216 187.925 C 140.445 187.097,140.400 186.554,140.400 177.991 C 140.400 168.080,140.387 168.009,138.861 169.424 C 138.282 169.961,137.581 170.400,137.304 170.400 C 136.917 170.400,136.800 172.118,136.800 177.818 C 136.800 186.023,136.424 187.200,133.799 187.200 C 131.343 187.200,130.800 185.739,130.800 179.129 C 130.800 172.669,130.754 172.544,128.600 173.130 L 127.400 173.457 127.200 184.606 L 127.000 195.756 125.785 196.465 C 124.613 197.150,124.524 197.147,123.285 196.393 L 122.000 195.612 121.994 184.106 C 121.987 171.310,122.124 172.031,119.468 170.827 C 117.700 170.025,112.400 165.427,112.400 164.695 C 112.400 164.524,111.950 163.671,111.400 162.800 C 110.850 161.929,110.400 160.888,110.400 160.488 C 110.400 160.088,110.195 159.555,109.944 159.304 C 109.297 158.657,109.318 150.477,109.971 148.756 C 113.798 138.673,124.419 133.046,133.600 136.237 M177.694 136.782 C 178.632 136.993,180.300 137.366,181.400 137.613 C 182.500 137.860,183.987 138.158,184.704 138.275 C 185.421 138.392,186.106 138.649,186.227 138.844 C 186.348 139.040,186.702 139.200,187.013 139.200 C 187.756 139.200,192.005 141.170,192.900 141.930 C 194.302 143.120,193.775 145.889,192.000 146.653 C 190.988 147.089,190.834 147.045,186.201 145.018 C 185.540 144.729,183.920 144.193,182.600 143.827 C 181.280 143.461,179.570 142.979,178.800 142.755 C 177.012 142.236,165.988 142.505,163.600 143.126 C 159.677 144.148,158.515 144.528,156.400 145.480 C 155.190 146.025,153.885 146.637,153.500 146.839 C 151.213 148.041,148.917 143.896,150.900 142.144 C 151.991 141.180,155.853 139.200,156.642 139.200 C 156.955 139.200,157.523 139.040,157.905 138.843 C 159.154 138.203,163.040 137.201,164.435 137.160 C 165.186 137.138,166.250 136.976,166.800 136.800 C 168.230 136.342,175.675 136.330,177.694 136.782 M221.105 141.408 C 220.827 141.632,220.404 142.172,220.164 142.608 C 218.140 146.284,217.475 147.455,217.211 147.800 C 217.043 148.020,216.364 149.190,215.701 150.400 C 214.322 152.918,214.066 151.984,218.004 158.800 C 219.212 160.890,220.385 162.960,220.611 163.400 C 220.994 164.145,221.486 164.208,227.700 164.310 L 234.378 164.419 235.389 162.818 C 235.945 161.937,236.400 161.119,236.400 161.000 C 236.400 160.881,236.864 160.050,237.430 159.152 C 237.997 158.255,238.926 156.683,239.494 155.660 C 240.063 154.637,240.702 153.518,240.915 153.173 C 241.197 152.716,241.016 152.093,240.251 150.881 C 239.673 149.965,239.200 149.105,239.200 148.970 C 239.200 148.834,238.865 148.246,238.457 147.662 C 238.048 147.078,237.123 145.520,236.403 144.200 C 235.682 142.880,235.012 141.710,234.914 141.600 C 234.542 141.182,221.608 141.002,221.105 141.408 M124.600 141.443 C 118.035 143.087,113.278 151.111,115.234 157.240 C 119.381 170.238,136.145 170.677,140.594 157.905 C 141.251 156.020,141.397 151.978,140.848 150.895 C 140.654 150.513,140.091 149.325,139.597 148.255 C 137.213 143.091,130.391 139.992,124.600 141.443 M131.484 144.703 C 134.279 145.955,135.426 147.184,137.257 150.895 C 140.742 157.954,130.090 166.220,123.158 161.835 C 113.451 155.694,121.060 140.036,131.484 144.703 M231.025 146.054 C 237.035 148.879,236.791 157.243,230.617 160.048 C 224.077 163.019,217.429 155.515,221.025 149.223 C 223.177 145.459,227.108 144.213,231.025 146.054 M176.200 150.005 C 180.154 150.506,181.653 150.794,182.800 151.269 C 187.917 153.392,188.268 153.592,188.756 154.663 C 190.266 157.977,187.188 159.794,183.438 157.800 C 182.404 157.250,181.295 156.800,180.973 156.800 C 180.652 156.800,180.077 156.634,179.695 156.432 C 179.313 156.229,177.425 155.840,175.500 155.567 C 171.936 155.062,166.028 155.518,164.305 156.432 C 163.923 156.634,163.275 156.800,162.865 156.800 C 162.455 156.800,161.273 157.250,160.238 157.800 C 156.957 159.545,154.800 158.760,154.800 155.823 C 154.800 151.923,166.419 148.764,176.200 150.005 M125.254 150.943 C 122.938 153.407,124.647 157.600,127.967 157.600 C 131.158 157.600,132.990 153.045,130.674 150.870 C 129.342 149.618,126.462 149.657,125.254 150.943 M226.003 151.689 C 224.499 153.303,226.377 155.645,228.522 154.830 C 230.002 154.267,230.136 151.437,228.700 151.052 C 227.248 150.663,226.877 150.750,226.003 151.689 M177.061 163.145 C 179.987 163.705,183.659 165.583,184.387 166.892 C 185.699 169.248,182.223 171.451,179.424 170.038 C 175.738 168.177,170.036 167.835,166.394 169.257 C 163.646 170.330,160.978 170.646,160.190 169.992 C 159.467 169.392,159.404 166.528,160.100 165.871 C 161.126 164.904,165.415 163.205,166.914 163.172 C 167.621 163.156,168.560 162.980,169.000 162.779 C 169.903 162.368,173.967 162.552,177.061 163.145 M237.326 170.500 C 237.149 170.775,236.811 171.360,236.574 171.800 C 235.196 174.361,233.380 177.519,232.365 179.120 C 230.998 181.275,230.951 181.721,231.943 183.138 C 232.352 183.722,232.757 184.390,232.843 184.622 C 232.929 184.855,234.069 186.880,235.377 189.122 L 237.753 193.200 244.177 193.194 C 251.535 193.187,251.070 193.348,252.797 190.200 C 253.521 188.880,254.448 187.322,254.857 186.738 C 255.265 186.154,255.600 185.566,255.600 185.430 C 255.600 185.295,256.050 184.471,256.600 183.600 C 257.915 181.517,257.917 181.529,255.599 177.676 C 254.500 175.848,253.600 174.269,253.600 174.167 C 253.600 173.847,251.426 170.613,251.004 170.306 C 250.262 169.767,237.683 169.945,237.326 170.500 M247.705 174.500 C 254.225 178.144,253.473 186.505,246.401 189.000 C 240.103 191.222,234.446 183.278,238.073 177.305 C 239.770 174.511,245.000 172.988,247.705 174.500 M176.635 176.454 C 178.360 177.190,180.000 178.830,180.000 179.820 C 180.000 181.695,176.909 183.549,175.737 182.377 C 174.941 181.581,170.982 181.448,168.848 182.146 C 166.182 183.018,165.800 182.980,164.829 181.746 C 163.334 179.846,164.293 177.211,166.691 176.627 C 167.301 176.478,168.430 176.196,169.200 176.000 C 170.968 175.550,175.106 175.803,176.635 176.454 M243.289 179.823 C 241.508 181.070,242.343 183.600,244.536 183.600 C 246.677 183.600,247.453 181.553,245.874 180.070 C 244.772 179.034,244.457 179.004,243.289 179.823 M174.150 184.406 C 174.771 184.415,177.200 186.603,177.200 187.153 C 177.200 187.399,177.380 187.600,177.600 187.600 C 177.826 187.600,178.000 188.737,178.000 190.211 C 178.000 196.368,170.690 198.836,166.862 193.970 C 163.631 189.862,167.376 183.447,172.550 184.227 C 173.183 184.322,173.903 184.403,174.150 184.406 M220.269 199.900 C 220.049 200.584,218.100 204.119,216.967 205.887 C 215.036 208.901,214.314 210.571,214.684 211.170 C 214.897 211.517,215.572 212.700,216.183 213.800 C 216.795 214.900,218.099 217.195,219.082 218.900 L 220.870 222.000 227.630 222.000 L 234.390 222.000 235.395 220.408 C 235.948 219.532,236.400 218.719,236.400 218.600 C 236.400 218.481,236.881 217.623,237.468 216.692 C 241.295 210.631,241.284 210.699,239.000 206.936 C 238.010 205.306,237.200 203.892,237.200 203.794 C 237.200 203.696,236.564 202.622,235.788 201.408 L 234.375 199.200 227.434 199.200 C 221.176 199.200,220.471 199.269,220.269 199.900 M230.510 203.388 C 233.746 204.740,235.587 208.438,234.964 212.334 C 234.668 214.185,231.689 217.600,230.371 217.600 C 229.973 217.600,229.536 217.780,229.400 218.000 C 228.959 218.714,226.400 218.424,224.275 217.418 C 215.412 213.223,221.462 199.608,230.510 203.388 M135.546 203.912 C 135.686 204.137,135.749 208.752,135.686 214.168 L 135.573 224.014 125.486 223.907 L 115.400 223.800 115.293 213.731 C 115.195 204.488,115.243 203.651,115.872 203.531 C 117.642 203.194,135.313 203.536,135.546 203.912 M160.720 203.680 C 161.227 204.187,161.443 222.101,160.957 223.367 C 160.745 223.921,159.450 224.000,150.557 224.000 L 140.400 224.000 140.400 213.829 C 140.400 204.479,140.456 203.644,141.100 203.476 C 142.810 203.029,160.250 203.210,160.720 203.680 M185.767 203.443 C 186.321 203.655,186.400 204.950,186.400 213.850 L 186.400 224.014 176.100 223.907 L 165.800 223.800 165.693 214.000 C 165.596 205.141,165.651 204.152,166.269 203.700 C 166.987 203.175,184.469 202.944,185.767 203.443 M226.089 209.023 C 224.394 210.210,225.257 212.500,227.400 212.500 C 228.784 212.500,229.600 211.708,229.600 210.365 C 229.600 208.564,227.753 207.857,226.089 209.023 M135.686 237.755 C 135.749 243.100,135.741 247.776,135.669 248.144 C 135.551 248.752,134.619 248.804,125.469 248.707 L 115.400 248.600 115.293 238.316 L 115.187 228.033 118.493 227.916 C 120.312 227.852,124.899 227.853,128.686 227.918 L 135.573 228.035 135.686 237.755 M160.886 228.525 C 161.476 229.453,161.258 247.854,160.650 248.358 C 160.264 248.679,157.207 248.783,150.350 248.707 L 140.600 248.600 140.493 238.319 L 140.387 228.039 142.893 227.919 C 148.599 227.648,160.585 228.051,160.886 228.525 M186.046 228.286 C 186.257 228.497,186.368 232.918,186.307 238.627 L 186.200 248.600 176.450 248.707 C 169.524 248.783,166.538 248.681,166.143 248.353 C 165.689 247.976,165.606 246.064,165.693 238.045 L 165.800 228.200 167.800 227.952 C 170.756 227.585,185.617 227.857,186.046 228.286 M114.371 257.854 C 116.655 260.757,115.125 268.400,112.260 268.400 C 110.068 268.400,109.600 267.401,109.600 262.721 C 109.600 257.166,111.947 254.772,114.371 257.854 M125.074 257.670 C 126.308 258.829,126.484 266.225,125.311 267.595 C 122.889 270.424,120.600 267.996,120.600 262.600 C 120.600 257.096,122.378 255.137,125.074 257.670 M135.814 257.446 C 137.090 258.282,137.346 266.334,136.138 267.669 C 135.313 268.580,133.302 268.617,132.331 267.738 C 131.113 266.635,131.249 258.342,132.500 257.470 C 133.668 256.655,134.596 256.648,135.814 257.446 M147.171 257.854 C 149.477 260.786,147.922 268.400,145.017 268.400 C 142.933 268.400,142.400 267.206,142.400 262.540 C 142.400 257.168,144.787 254.823,147.171 257.854 M157.874 257.670 C 159.191 258.906,159.284 266.316,158.000 267.600 C 155.394 270.206,153.600 268.196,153.600 262.670 C 153.600 256.947,155.161 255.121,157.874 257.670 M168.725 257.616 C 169.893 258.704,170.057 266.432,168.938 267.669 C 168.113 268.580,166.102 268.617,165.131 267.738 C 163.913 266.635,164.049 258.342,165.300 257.470 C 166.542 256.603,167.690 256.652,168.725 257.616 M179.971 257.854 C 181.228 259.451,181.199 266.123,179.930 267.474 C 177.365 270.205,175.200 268.056,175.200 262.779 C 175.200 258.304,175.905 256.800,178.000 256.800 C 178.757 256.800,179.421 257.155,179.971 257.854 M190.725 257.616 C 192.002 258.805,192.057 266.631,190.795 267.711 C 188.050 270.062,186.400 268.169,186.400 262.670 C 186.400 256.986,188.018 255.094,190.725 257.616 " stroke="none" fill="#4dc9df" fill-rule="evenodd"></path></g></svg>